<svg width="21" height="19" viewBox="0 0 21 19" fill="none" xmlns="http://www.w3.org/2000/svg">
<path d="M16.1025 13.5714C15.9385 13.5717 15.7796 13.5165 15.6533 13.4153L12.4806 10.8571H11.1891C9.69975 10.8571 8.27145 10.2852 7.21836 9.26715C6.16527 8.24909 5.57364 6.86831 5.57364 5.42857C5.57364 3.98882 6.16527 2.60804 7.21836 1.58999C8.27145 0.571937 9.69975 0 11.1891 0H15.4006C16.7646 0.00376505 18.0805 0.48731 19.1026 1.36035C20.1248 2.23338 20.7833 3.43622 20.9552 4.74427C21.1271 6.05232 20.8007 7.37614 20.0369 8.46856C19.2731 9.56098 18.1241 10.3473 16.8045 10.6807V12.8928C16.8048 13.0226 16.7666 13.1498 16.6945 13.2592C16.6223 13.3687 16.5192 13.4558 16.3973 13.5103C16.3048 13.5511 16.2042 13.5719 16.1025 13.5714ZM11.1891 1.35714C10.0721 1.35714 9.00085 1.78609 8.21103 2.54964C7.42121 3.31318 6.9775 4.34876 6.9775 5.42857C6.9775 6.50838 7.42121 7.54396 8.21103 8.3075C9.00085 9.07104 10.0721 9.49999 11.1891 9.49999H12.7333C12.8973 9.49969 13.0562 9.5549 13.1825 9.65607L15.4006 11.4407V10.1243C15.3989 9.95962 15.4592 9.79999 15.5703 9.67515C15.6814 9.5503 15.8356 9.46875 16.0043 9.44571C17.0416 9.28137 17.9778 8.74798 18.629 7.95033C19.2803 7.15268 19.5994 6.14843 19.5238 5.1349C19.4481 4.12136 18.9832 3.17181 18.2203 2.47279C17.4573 1.77378 16.4516 1.37583 15.4006 1.35714H11.1891Z" fill="#4BCDD0"/>
<path d="M13.9968 4.75H12.5929V6.10714H13.9968V4.75Z" fill="#4BCDD0"/>
<path d="M10.4871 4.75H9.08327V6.10714H10.4871V4.75Z" fill="#4BCDD0"/>
<path d="M17.5064 4.75H16.1025V6.10714H17.5064V4.75Z" fill="#4BCDD0"/>
<path d="M4.87172 19C4.77003 19.0005 4.66944 18.9797 4.57691 18.9389C4.45507 18.8844 4.35196 18.7973 4.2798 18.6878C4.20764 18.5784 4.16946 18.4512 4.16979 18.3214V16.1093C3.05294 15.8216 2.05511 15.2078 1.31248 14.3516C0.569852 13.4954 0.11861 12.4385 0.0203384 11.3252C-0.0779337 10.2119 0.181552 9.09643 0.76338 8.13097C1.34521 7.16551 2.22103 6.39714 3.27133 5.93071C3.3561 5.88752 3.44912 5.86158 3.54466 5.85446C3.6402 5.84735 3.73623 5.85922 3.82685 5.88935C3.91746 5.91947 4.00074 5.96722 4.07154 6.02963C4.14234 6.09205 4.19917 6.16783 4.23854 6.25228C4.2779 6.33674 4.29896 6.4281 4.30041 6.52072C4.30187 6.61334 4.28369 6.70528 4.247 6.79085C4.21031 6.87642 4.15588 6.95383 4.08708 7.0183C4.01827 7.08277 3.93653 7.13294 3.84691 7.16571C3.01858 7.52878 2.33409 8.14132 1.8958 8.91172C1.4575 9.68211 1.28896 10.569 1.41536 11.4397C1.54177 12.3104 1.95634 13.1181 2.59708 13.7421C3.23781 14.3661 4.07028 14.7728 4.96999 14.9014C5.13864 14.9245 5.29288 15.006 5.40394 15.1309C5.51501 15.2557 5.57532 15.4153 5.57364 15.58V16.8964L7.79173 15.1118C7.91402 15.0008 8.07338 14.9358 8.24096 14.9286H9.7852C10.3473 14.9296 10.9039 14.8207 11.4213 14.6085C11.9388 14.3962 12.4066 14.085 12.7965 13.6936C12.9268 13.564 13.105 13.4898 13.2919 13.4872C13.3845 13.486 13.4764 13.5023 13.5624 13.5354C13.6484 13.5685 13.7268 13.6176 13.7932 13.68C13.8596 13.7424 13.9126 13.8168 13.9492 13.899C13.9858 13.9811 14.0053 14.0695 14.0066 14.159C14.008 14.2484 13.991 14.3373 13.9568 14.4204C13.9226 14.5036 13.8718 14.5794 13.8072 14.6436C13.2842 15.163 12.6589 15.576 11.9681 15.858C11.2773 16.14 10.5351 16.2855 9.7852 16.2857H8.49366L5.32095 18.8439C5.19467 18.9451 5.03573 19.0003 4.87172 19Z" fill="#4BCDD0"/>
</svg>
