<svg width="17" height="13" viewBox="0 0 17 13" fill="none" xmlns="http://www.w3.org/2000/svg">
<path d="M14.1667 0.125H2.83333C1.275 0.125 0 1.4 0 2.95833V10.0417C0 11.6 1.275 12.875 2.83333 12.875H14.1667C15.725 12.875 17 11.6 17 10.0417V2.95833C17 1.4 15.725 0.125 14.1667 0.125ZM15.3 4.23333L9.70417 7.9875C9.35 8.2 8.925 8.34167 8.5 8.34167C8.075 8.34167 7.65 8.2 7.29583 7.9875L1.7 4.23333C1.41667 4.02083 1.34583 3.59583 1.55833 3.24167C1.77083 2.95833 2.19583 2.8875 2.55 3.1L8.14583 6.85417C8.35833 6.99583 8.7125 6.99583 8.925 6.85417L14.5208 3.1C14.875 2.8875 15.3 2.95833 15.5125 3.3125C15.6542 3.59583 15.5833 4.02083 15.3 4.23333Z" fill="#2E686A"/>
</svg>
