<svg width="17" height="17" viewBox="0 0 17 17" fill="none" xmlns="http://www.w3.org/2000/svg">
<path d="M8.49967 9.91675C10.4557 9.91675 12.0413 8.01396 12.0413 5.66675C12.0413 3.31954 10.4557 1.41675 8.49967 1.41675C6.54367 1.41675 4.95801 3.31954 4.95801 5.66675C4.95801 8.01396 6.54367 9.91675 8.49967 9.91675Z" fill="#2E686A"/>
<path d="M15.4415 13.5293C14.804 12.2543 13.5998 11.1918 12.0415 10.5543C11.6165 10.4126 11.1207 10.4126 10.7665 10.6251C10.0582 11.0501 9.34983 11.2626 8.49983 11.2626C7.64983 11.2626 6.9415 11.0501 6.23316 10.6251C5.879 10.4835 5.38316 10.4126 4.95816 10.6251C3.39983 11.2626 2.19566 12.3251 1.55816 13.6001C1.06233 14.521 1.84149 15.5835 2.90399 15.5835H14.0957C15.1582 15.5835 15.9373 14.521 15.4415 13.5293Z" fill="#2E686A"/>
</svg>
