<svg width="27" height="28" viewBox="0 0 27 28" fill="none" xmlns="http://www.w3.org/2000/svg">
<path fill-rule="evenodd" clip-rule="evenodd" d="M0 13.5281C0 20.9828 6.0453 27.0281 13.5 27.0281C20.9547 27.0281 27 20.9828 27 13.5281C27 6.07344 20.9547 0.0281372 13.5 0.0281372C6.0453 0.0281372 0 6.07344 0 13.5281ZM13.5783 7.31607C15.5747 7.31607 15.8114 7.32265 16.6003 7.35991C17.3301 7.39278 17.7267 7.51552 17.9897 7.61854C18.3381 7.75443 18.588 7.91662 18.8488 8.17744C19.1095 8.43826 19.2717 8.68812 19.4076 9.03661C19.5106 9.29962 19.6311 9.69633 19.6662 10.4262C19.7012 11.2152 19.71 11.4519 19.71 13.4486C19.71 15.4453 19.7034 15.6821 19.6662 16.4711C19.6333 17.201 19.5106 17.5977 19.4076 17.8607C19.2717 18.2092 19.1095 18.459 18.8488 18.7199C18.588 18.9807 18.3381 19.1429 17.9897 19.2788C17.7267 19.3818 17.3301 19.5023 16.6003 19.5374C15.8114 19.5725 15.5747 19.5812 13.5783 19.5812C11.5819 19.5812 11.3452 19.5746 10.5563 19.5374C9.82654 19.5045 9.42988 19.3818 9.16691 19.2788C8.81847 19.1429 8.56864 18.9807 8.30786 18.7199C8.04707 18.459 7.88491 18.2092 7.74904 17.8607C7.64604 17.5977 7.52551 17.201 7.49045 16.4711C7.45538 15.6821 7.44662 15.4453 7.44662 13.4486C7.44662 11.4519 7.45319 11.2152 7.49045 10.4262C7.52332 9.69633 7.64604 9.29962 7.74904 9.03661C7.88491 8.68812 8.04707 8.43826 8.30786 8.17744C8.56864 7.91662 8.81847 7.75443 9.16691 7.61854C9.42988 7.51552 9.82654 7.39497 10.5563 7.35991C11.3452 7.32265 11.5819 7.31607 13.5783 7.31607ZM13.5783 5.96813C11.5468 5.96813 11.2926 5.9769 10.4949 6.01416C9.69943 6.05142 9.15595 6.17635 8.67821 6.36265C8.18733 6.55114 7.76876 6.80758 7.35457 7.22402C6.9382 7.64045 6.68399 8.05689 6.49114 8.55004C6.30706 9.02565 6.17996 9.56921 6.1427 10.367C6.10545 11.1648 6.09668 11.4191 6.09668 13.4508C6.09668 15.4826 6.10545 15.7369 6.1427 16.5347C6.17996 17.3303 6.30487 17.8738 6.49114 18.3516C6.6818 18.8404 6.9382 19.259 7.35457 19.6733C7.77095 20.0897 8.18733 20.344 8.6804 20.5368C9.15595 20.7209 9.69943 20.8481 10.4971 20.8853C11.2948 20.9226 11.549 20.9314 13.5805 20.9314C15.612 20.9314 15.8662 20.9226 16.6639 20.8853C17.4594 20.8481 18.0029 20.7231 18.4806 20.5368C18.9693 20.3461 19.3879 20.0897 19.802 19.6733C20.2184 19.2568 20.4726 18.8404 20.6655 18.3473C20.8496 17.8716 20.9767 17.3281 21.0139 16.5303C21.0512 15.7325 21.0599 15.4782 21.0599 13.4465C21.0599 11.4147 21.0512 11.1604 21.0139 10.3626C20.9767 9.56702 20.8517 9.02346 20.6655 8.54565C20.4748 8.05689 20.2184 7.63826 19.802 7.22402C19.3857 6.80758 18.9693 6.55334 18.4762 6.36046C18.0007 6.17635 17.4572 6.04923 16.6595 6.01197C15.864 5.9769 15.6098 5.96813 13.5783 5.96813ZM13.5784 9.57996C11.4415 9.57996 9.70862 11.3129 9.70862 13.4498C9.70862 15.5867 11.4415 17.3196 13.5784 17.3196C15.7152 17.3196 17.4481 15.5867 17.4481 13.4498C17.4481 11.3129 15.7152 9.57996 13.5784 9.57996ZM13.5784 15.9619C12.1921 15.9619 11.0662 14.8383 11.0662 13.4498C11.0662 12.0612 12.1921 10.9376 13.5784 10.9376C14.9647 10.9376 16.0905 12.0612 16.0905 13.4498C16.0905 14.8383 14.9647 15.9619 13.5784 15.9619ZM18.48 9.57992C18.48 10.1498 18.0179 10.6119 17.448 10.6119C16.878 10.6119 16.416 10.1498 16.416 9.57992C16.416 9.00999 16.878 8.54797 17.448 8.54797C18.0179 8.54797 18.48 9.00999 18.48 9.57992Z" fill="white"/>
</svg>
