<svg width="27" height="28" viewBox="0 0 27 28" fill="none" xmlns="http://www.w3.org/2000/svg">
<path fill-rule="evenodd" clip-rule="evenodd" d="M0 13.5283C0 20.983 6.0453 27.0283 13.5 27.0283C20.9547 27.0283 27 20.983 27 13.5283C27 6.07362 20.9547 0.0283203 13.5 0.0283203C6.0453 0.0283203 0 6.07362 0 13.5283ZM13.5783 7.31626C15.5747 7.31626 15.8114 7.32284 16.6003 7.3601C17.3301 7.39297 17.7267 7.51571 17.9897 7.61873C18.3381 7.75462 18.588 7.91681 18.8488 8.17763C19.1095 8.43845 19.2717 8.68831 19.4076 9.0368C19.5106 9.29981 19.6311 9.69652 19.6662 10.4264C19.7012 11.2154 19.71 11.4521 19.71 13.4488C19.71 15.4455 19.7034 15.6823 19.6662 16.4713C19.6333 17.2011 19.5106 17.5979 19.4076 17.8609C19.2717 18.2094 19.1095 18.4592 18.8488 18.72C18.588 18.9809 18.3381 19.1431 17.9897 19.2789C17.7267 19.382 17.3301 19.5025 16.6003 19.5376C15.8114 19.5726 15.5747 19.5814 13.5783 19.5814C11.5819 19.5814 11.3452 19.5748 10.5563 19.5376C9.82654 19.5047 9.42988 19.382 9.16691 19.2789C8.81847 19.1431 8.56864 18.9809 8.30786 18.72C8.04707 18.4592 7.88491 18.2094 7.74904 17.8609C7.64604 17.5979 7.52551 17.2011 7.49045 16.4713C7.45538 15.6823 7.44662 15.4455 7.44662 13.4488C7.44662 11.4521 7.45319 11.2154 7.49045 10.4264C7.52332 9.69652 7.64604 9.29981 7.74904 9.0368C7.88491 8.68831 8.04707 8.43845 8.30786 8.17763C8.56864 7.91681 8.81847 7.75462 9.16691 7.61873C9.42988 7.51571 9.82654 7.39517 10.5563 7.3601C11.3452 7.32284 11.5819 7.31626 13.5783 7.31626ZM13.5783 5.96832C11.5468 5.96832 11.2926 5.97709 10.4949 6.01435C9.69943 6.05161 9.15595 6.17654 8.67821 6.36284C8.18733 6.55133 7.76876 6.80777 7.35457 7.22421C6.9382 7.64064 6.68399 8.05708 6.49114 8.55023C6.30706 9.02584 6.17996 9.5694 6.1427 10.3672C6.10545 11.165 6.09668 11.4193 6.09668 13.451C6.09668 15.4828 6.10545 15.737 6.1427 16.5348C6.17996 17.3305 6.30487 17.874 6.49114 18.3518C6.6818 18.8406 6.9382 19.2592 7.35457 19.6735C7.77095 20.0899 8.18733 20.3441 8.6804 20.537C9.15595 20.7211 9.69943 20.8483 10.4971 20.8855C11.2948 20.9228 11.549 20.9315 13.5805 20.9315C15.612 20.9315 15.8662 20.9228 16.6639 20.8855C17.4594 20.8483 18.0029 20.7233 18.4806 20.537C18.9693 20.3463 19.3879 20.0899 19.802 19.6735C20.2184 19.257 20.4726 18.8406 20.6655 18.3474C20.8496 17.8718 20.9767 17.3283 21.0139 16.5305C21.0512 15.7327 21.0599 15.4784 21.0599 13.4466C21.0599 11.4149 21.0512 11.1606 21.0139 10.3628C20.9767 9.56721 20.8517 9.02365 20.6655 8.54585C20.4748 8.05708 20.2184 7.63845 19.802 7.22421C19.3857 6.80777 18.9693 6.55353 18.4762 6.36065C18.0007 6.17654 17.4572 6.04942 16.6595 6.01216C15.864 5.97709 15.6098 5.96832 13.5783 5.96832ZM13.5784 9.58015C11.4415 9.58015 9.70862 11.3131 9.70862 13.45C9.70862 15.5868 11.4415 17.3198 13.5784 17.3198C15.7152 17.3198 17.4481 15.5868 17.4481 13.45C17.4481 11.3131 15.7152 9.58015 13.5784 9.58015ZM13.5784 15.9621C12.1921 15.9621 11.0662 14.8385 11.0662 13.45C11.0662 12.0614 12.1921 10.9378 13.5784 10.9378C14.9647 10.9378 16.0905 12.0614 16.0905 13.45C16.0905 14.8385 14.9647 15.9621 13.5784 15.9621ZM18.48 9.58011C18.48 10.15 18.0179 10.6121 17.448 10.6121C16.878 10.6121 16.416 10.15 16.416 9.58011C16.416 9.01018 16.878 8.54817 17.448 8.54817C18.0179 8.54817 18.48 9.01018 18.48 9.58011Z" fill="#02283F"/>
</svg>
