<svg width="33" height="32" viewBox="0 0 33 32" fill="none" xmlns="http://www.w3.org/2000/svg">
<path d="M27.499 16.875H5.49902V3.125H27.499V16.875ZM6.87402 15.5H26.124V4.5H6.87402V15.5Z" fill="#6CE5E8"/>
<path d="M22.8805 26.5H10.1191L11.1504 22.375H21.8493L22.8805 26.5ZM11.8805 25.125H21.1191L20.7754 23.75H12.2243L11.8805 25.125Z" fill="#6CE5E8"/>
<path d="M30.25 32H2.75C1.23337 32 0 30.7666 0 29.25L0.026125 28.3734L2.75 18.8413V3.125C2.75 1.60837 3.98337 0.375 5.5 0.375H27.5C29.0166 0.375 30.25 1.60837 30.25 3.125V18.1599L33 28.5625V29.25C33 30.7666 31.7666 32 30.25 32ZM1.375 28.6587V29.25C1.375 30.0083 1.99169 30.625 2.75 30.625H30.25C31.0083 30.625 31.625 30.0083 31.625 29.25V28.6526L28.875 18.25V3.125C28.875 2.36669 28.2583 1.75 27.5 1.75H5.5C4.74169 1.75 4.125 2.36669 4.125 3.125L4.09888 19.1266L1.375 28.6587Z" fill="#6CE5E8"/>
<path d="M29.5615 18.2501H3.43652V19.6251H29.5615V18.2501Z" fill="#6CE5E8"/>
<path d="M32.3135 27.875H0.688477V29.25H32.3135V27.875Z" fill="#6CE5E8"/>
</svg>
