<svg width="40" height="41" viewBox="0 0 40 41" fill="none" xmlns="http://www.w3.org/2000/svg">
<path d="M7.47326 12.6581C9.94233 12.6581 11.967 10.6499 11.967 8.16439C11.967 5.67886 9.95879 3.67069 7.47326 3.67069C4.98773 3.67069 2.99601 5.69532 2.99601 8.16439C2.99601 10.6335 5.00419 12.6581 7.47326 12.6581ZM7.47326 5.38257C9.00408 5.38257 10.2715 6.63357 10.2715 8.18085C10.2715 9.72814 9.02054 10.9791 7.47326 10.9791C5.92597 10.9791 4.67498 9.72814 4.67498 8.18085C4.67498 6.63357 5.94243 5.38257 7.47326 5.38257Z" fill="#6CE5E8"/>
<path d="M12.7898 17.8596C12.3289 17.8267 11.9174 18.1888 11.8845 18.6497L11.1931 28.5095C11.1931 28.5424 11.1767 28.5589 11.1767 28.5918L10.5512 38.1883C10.5347 38.5504 10.2219 38.8467 9.85982 38.8467H5.08628C4.72415 38.8467 4.4114 38.5669 4.39494 38.1883L3.76945 28.5918C3.75299 28.2462 3.50608 27.9334 3.17687 27.8346C2.9958 27.7853 2.46907 27.6207 2.38677 27.5384C2.32093 27.4396 2.288 26.9129 2.27154 26.6495L1.69543 16.4769V16.4605C2.76536 16.1477 3.81883 15.802 4.88876 15.4564C5.36611 16.016 5.84346 16.5592 6.33728 17.1189L6.84755 17.695C7.01216 17.8761 7.2426 17.9913 7.48951 17.9913C7.73642 17.9913 7.96686 17.8925 8.13147 17.695L8.72405 17.0201C9.2014 16.4769 9.64583 15.9666 10.0903 15.4399L17.4646 17.1024C17.5798 17.1353 17.7115 17.1353 17.8267 17.1024L24.4767 15.7362C24.9376 15.6374 25.2339 15.193 25.1351 14.7321C25.0364 14.2712 24.5919 13.9749 24.131 14.0737L17.6621 15.407L10.3866 13.7609C10.3536 13.7445 10.3043 13.7445 10.2713 13.7445C10.0573 13.728 9.33308 13.7116 8.88865 14.2383C8.42776 14.7815 7.96686 15.3082 7.48951 15.8514C7.01216 15.3082 6.55126 14.7815 6.09037 14.2383C5.6624 13.7445 5.1192 13.5799 4.52663 13.7774C3.39086 14.156 2.25508 14.5181 1.11931 14.8638C0.395051 15.0942 0 15.6374 0 16.3782C0 16.4275 0 16.5592 0 16.5757L0.559656 26.6166L0.576116 26.7812C0.674879 28.2462 0.888865 28.8058 2.1234 29.2832L2.71598 38.32C2.79828 39.571 3.85175 40.5586 5.10274 40.5586H9.87628C11.1273 40.5586 12.1807 39.571 12.263 38.32L12.8885 28.8058C12.8885 28.7729 12.8885 28.7564 12.905 28.7235L13.5963 18.7814C13.5963 18.304 13.2507 17.8925 12.7898 17.8596Z" fill="#6CE5E8"/>
<path d="M38.8633 0H7.47323C7.01234 0 6.61729 0.378591 6.61729 0.855944C6.61729 1.3333 6.99588 1.71189 7.47323 1.71189H38.0074V23.7689H15.4895C15.0286 23.7689 14.6335 24.1475 14.6335 24.6248C14.6335 25.0857 15.0121 25.4808 15.4895 25.4808H38.8633C39.3242 25.4808 39.7193 25.1022 39.7193 24.6248V0.855944C39.7193 0.395051 39.3407 0 38.8633 0Z" fill="#6CE5E8"/>
</svg>
