<svg width="43" height="26" viewBox="0 0 43 26" fill="none" xmlns="http://www.w3.org/2000/svg">
<path d="M32.6378 23.9722C32.2475 23.9716 31.862 23.8868 31.5074 23.7237C31.1529 23.5605 30.8377 23.3228 30.5833 23.0268C28.7915 20.948 25.6554 19.5696 22.0847 19.5696C18.514 19.5696 15.3795 20.948 13.5877 23.0268C13.3333 23.3228 13.0181 23.5605 12.6636 23.7237C12.309 23.8868 11.9235 23.9716 11.5332 23.9722H7.64142C7.43345 23.9724 7.22747 23.9316 7.03527 23.8522C6.84307 23.7727 6.66841 23.6562 6.52127 23.5092C6.37414 23.3622 6.25742 23.1877 6.17778 22.9956C6.09814 22.8034 6.05715 22.5975 6.05715 22.3895V9.33109C6.05715 9.12312 6.09814 8.91719 6.17778 8.72506C6.25742 8.53294 6.37414 8.3584 6.52127 8.21142C6.66841 8.06443 6.84307 7.94789 7.03527 7.86845C7.22747 7.78901 7.43345 7.74823 7.64142 7.74844H35.4561C35.6641 7.74823 35.8701 7.78901 36.0623 7.86845C36.2545 7.94789 36.4291 8.06443 36.5763 8.21142C36.7234 8.3584 36.8401 8.53294 36.9197 8.72506C36.9994 8.91719 37.0404 9.12312 37.0404 9.33109V22.3912C37.0404 22.5991 36.9994 22.8051 36.9197 22.9972C36.8401 23.1893 36.7234 23.3639 36.5763 23.5108C36.4291 23.6578 36.2545 23.7744 36.0623 23.8538C35.8701 23.9332 35.6641 23.974 35.4561 23.9738L32.6378 23.9722Z" stroke="#6CE5E8" stroke-width="2.18708" stroke-linecap="round" stroke-linejoin="round"/>
<path d="M17.3027 2H25.79C27.3145 2 28.7767 2.60564 29.8547 3.68368C30.9328 4.76172 31.5384 6.22386 31.5384 7.74844H11.5543C11.5543 6.22386 12.1599 4.76172 13.2379 3.68368C14.316 2.60564 15.7781 2 17.3027 2Z" stroke="#6CE5E8" stroke-width="2.18708" stroke-linecap="round" stroke-linejoin="round"/>
<path d="M6.05229 12.6666H2V18.9307H6.05229V12.6666Z" stroke="#6CE5E8" stroke-width="2.18708" stroke-linecap="round" stroke-linejoin="round"/>
<path d="M41.0927 12.6666H37.0404V18.9307H41.0927V12.6666Z" stroke="#6CE5E8" stroke-width="2.18708" stroke-linecap="round" stroke-linejoin="round"/>
</svg>
