<svg width="40" height="36" viewBox="0 0 40 36" fill="none" xmlns="http://www.w3.org/2000/svg">
<path d="M37.2671 12.5505C37.2671 10.7713 35.8085 9.31272 34.0293 9.31272C32.2501 9.31272 30.7915 10.7713 30.7915 12.5505C30.7915 13.1436 30.9678 13.7046 31.2563 14.1855L26.8965 18.5453C26.4477 18.3209 25.9508 18.1766 25.4219 18.1766C24.7486 18.1766 24.1396 18.385 23.6106 18.7216L19.2347 14.3618C19.5874 13.8489 19.7958 13.2237 19.7958 12.5505C19.7958 10.7713 18.3371 9.31272 16.5579 9.31272C14.7787 9.31272 13.3201 10.7713 13.3201 12.5505C13.3201 13.0795 13.4644 13.5764 13.6888 14.0092L9.05646 18.6415C8.5756 18.353 8.01459 18.1766 7.42153 18.1766C5.64233 18.1766 4.18371 19.6353 4.18371 21.4145C4.18371 23.1936 5.64233 24.6523 7.42153 24.6523C9.20072 24.6523 10.6593 23.1936 10.6593 21.4145C10.6593 20.8214 10.483 20.2604 10.1945 19.7795L14.7467 15.2273C15.2596 15.58 15.8847 15.7883 16.5579 15.7883C17.0869 15.7883 17.5838 15.6441 18.0166 15.4197L22.5367 19.9398C22.3123 20.3886 22.168 20.8855 22.168 21.4145C22.168 23.1936 23.6266 24.6523 25.4058 24.6523C27.185 24.6523 28.6436 23.1936 28.6436 21.4145C28.6436 20.7412 28.4353 20.1161 28.0987 19.6032L32.3784 15.3235C32.8592 15.612 33.4202 15.7883 34.0133 15.7883C35.8085 15.7883 37.2671 14.3297 37.2671 12.5505ZM7.42153 23.0334C6.52391 23.0334 5.78659 22.296 5.78659 21.3984C5.78659 20.5008 6.52391 19.7635 7.42153 19.7635C7.87033 19.7635 8.27105 19.9398 8.5756 20.2444C8.86412 20.5329 9.05646 20.9496 9.05646 21.3984C9.05646 22.3121 8.31914 23.0334 7.42153 23.0334ZM16.5579 14.1694C15.6603 14.1694 14.923 13.4321 14.923 12.5345C14.923 11.6369 15.6603 10.8996 16.5579 10.8996C17.4555 10.8996 18.1929 11.6369 18.1929 12.5345C18.1929 13.4481 17.4555 14.1694 16.5579 14.1694ZM25.4219 23.0334C24.5242 23.0334 23.7869 22.296 23.7869 21.3984C23.7869 20.5008 24.5242 19.7635 25.4219 19.7635C26.3195 19.7635 27.0568 20.5008 27.0568 21.3984C27.0408 22.3121 26.3195 23.0334 25.4219 23.0334ZM32.8752 13.6886C32.5867 13.4001 32.3944 12.9833 32.3944 12.5345C32.3944 11.6369 33.1317 10.8996 34.0293 10.8996C34.9269 10.8996 35.6643 11.6369 35.6643 12.5345C35.6643 13.4321 34.9269 14.1694 34.0293 14.1694C33.5805 14.1694 33.1638 13.9931 32.8752 13.6886Z" fill="#6CE5E8"/>
<path d="M0.865555 31.4164C1.34642 31.4164 1.73111 31.0317 1.73111 30.5509V0.865555C1.73111 0.384691 1.34642 0 0.865555 0C0.384691 0 0 0.384691 0 0.865555V30.5509C0 31.0317 0.384691 31.4164 0.865555 31.4164Z" fill="#6CE5E8"/>
<path d="M5.38567 33.949H0.865555C0.384691 33.949 0 34.3336 0 34.8145C0 35.2954 0.384691 35.6801 0.865555 35.6801H5.4017C5.88257 35.6801 6.26726 35.2954 6.26726 34.8145C6.26726 34.3336 5.86654 33.949 5.38567 33.949Z" fill="#6CE5E8"/>
<path d="M13.7523 33.949H9.2322C8.75134 33.949 8.36664 34.3336 8.36664 34.8145C8.36664 35.2954 8.75134 35.6801 9.2322 35.6801H13.7683C14.2492 35.6801 14.6339 35.2954 14.6339 34.8145C14.6339 34.3336 14.2332 33.949 13.7523 33.949Z" fill="#6CE5E8"/>
<path d="M22.1195 33.949H17.5833C17.1025 33.949 16.7178 34.3336 16.7178 34.8145C16.7178 35.2954 17.1025 35.6801 17.5833 35.6801H22.1195C22.6003 35.6801 22.985 35.2954 22.985 34.8145C22.985 34.3336 22.6003 33.949 22.1195 33.949Z" fill="#6CE5E8"/>
<path d="M30.4861 33.949H25.95C25.4691 33.949 25.0844 34.3336 25.0844 34.8145C25.0844 35.2954 25.4691 35.6801 25.95 35.6801H30.4861C30.967 35.6801 31.3517 35.2954 31.3517 34.8145C31.3517 34.3336 30.967 33.949 30.4861 33.949Z" fill="#6CE5E8"/>
<path d="M38.8543 33.949H34.3182C33.8373 33.949 33.4526 34.3336 33.4526 34.8145C33.4526 35.2954 33.8373 35.6801 34.3182 35.6801H38.8543C39.3352 35.6801 39.7199 35.2954 39.7199 34.8145C39.7199 34.3336 39.3352 33.949 38.8543 33.949Z" fill="#6CE5E8"/>
</svg>
