<svg width="42" height="31" viewBox="0 0 42 31" fill="none" xmlns="http://www.w3.org/2000/svg">
<path d="M27.6972 16.6481L31.0903 20.1488C31.2499 20.313 31.3765 20.5081 31.4629 20.7229C31.5493 20.9377 31.5937 21.168 31.5937 21.4005C31.5937 21.6331 31.5493 21.8634 31.4629 22.0782C31.3765 22.293 31.2499 22.4881 31.0903 22.6523C30.9311 22.8169 30.742 22.9476 30.5338 23.0367C30.3256 23.1258 30.1024 23.1717 29.877 23.1717C29.6516 23.1717 29.4284 23.1258 29.2202 23.0367C29.012 22.9476 28.8229 22.8169 28.6637 22.6523L23.2141 17.03M23.6186 17.4402L29.0681 23.0625C29.2277 23.2267 29.3543 23.4218 29.4407 23.6366C29.5271 23.8514 29.5716 24.0817 29.5716 24.3142C29.5716 24.5468 29.5271 24.7771 29.4407 24.9919C29.3543 25.2067 29.2277 25.4018 29.0681 25.566C28.9089 25.7306 28.7198 25.8613 28.5116 25.9504C28.3034 26.0395 28.0802 26.0854 27.8548 26.0854C27.6294 26.0854 27.4062 26.0395 27.198 25.9504C26.9898 25.8613 26.8007 25.7306 26.6415 25.566L21 19.6891M25.5929 24.4769L26.9638 25.8913C27.1234 26.0556 27.25 26.2507 27.3364 26.4655C27.4228 26.6803 27.4673 26.9105 27.4673 27.1431C27.4673 27.3756 27.4228 27.6059 27.3364 27.8207C27.25 28.0355 27.1234 28.2306 26.9638 28.3948C26.8046 28.5595 26.6155 28.6901 26.4073 28.7792C26.1991 28.8684 25.9759 28.9143 25.7505 28.9143C25.5251 28.9143 25.3019 28.8684 25.0937 28.7792C24.8855 28.6901 24.6964 28.5595 24.5372 28.3948L23.1663 26.9804M24.4274 13.3242L29.027 18.0272C29.1862 18.1918 29.3753 18.3224 29.5835 18.4116C29.7917 18.5007 30.0149 18.5466 30.2403 18.5466C30.4657 18.5466 30.6889 18.5007 30.8971 18.4116C31.1053 18.3224 31.2944 18.1918 31.4536 18.0272C31.6132 17.8629 31.7398 17.6678 31.8262 17.453C31.9126 17.2382 31.9571 17.008 31.9571 16.7754C31.9571 16.5428 31.9126 16.3126 31.8262 16.0978C31.7398 15.883 31.6132 15.6879 31.4536 15.5236L24.4754 8.32426L21.6855 8.37376V10.849C21.6855 11.3179 21.505 11.7676 21.1836 12.0992C20.8622 12.4307 20.4263 12.617 19.9718 12.617C19.5197 12.617 19.0859 12.4327 18.7649 12.1042C18.4439 11.7757 18.2617 11.3296 18.2581 10.8631V7.91408C18.2581 7.76106 18.3062 7.61217 18.3952 7.48975L20.0267 5.2479C20.1108 5.13144 20.2276 5.04453 20.3613 4.99898C20.495 4.95343 20.639 4.95145 20.7738 4.99331L26.0657 6.66232C26.4573 6.84429 26.8395 7.0473 27.2105 7.27052L32.8863 1.41483C33.0136 1.28332 33.1648 1.179 33.3312 1.10782C33.4977 1.03664 33.6761 1 33.8562 1C34.0364 1 34.2148 1.03664 34.3812 1.10782C34.5477 1.179 34.6989 1.28332 34.8262 1.41483L40.5979 7.36952C40.7254 7.50088 40.8265 7.65688 40.8955 7.82858C40.9645 8.00029 41 8.18435 41 8.37022C41 8.5561 40.9645 8.74015 40.8955 8.91186C40.8265 9.08357 40.7254 9.23956 40.5979 9.37092L30.5968 19.6891M19.7456 5.60857C17.9972 5.78984 16.3071 6.35661 14.7896 7.27051L9.11372 1.41483C8.98639 1.28332 8.83519 1.179 8.66876 1.10782C8.50233 1.03664 8.32393 1 8.14377 1C7.9636 1 7.7852 1.03664 7.61877 1.10782C7.45234 1.179 7.30114 1.28332 7.17381 1.41483L1.40208 7.37659C1.27462 7.50796 1.1735 7.66395 1.1045 7.83566C1.03551 8.00736 1 8.19142 1 8.37729C1 8.56317 1.03551 8.74722 1.1045 8.91893C1.1735 9.09064 1.27462 9.24663 1.40208 9.37799L8.72985 16.931C8.68432 17.3773 8.66157 17.8258 8.66143 18.2747C8.66132 19.5229 8.83916 20.7644 9.18925 21.9592M14.5828 18.8053C15.2521 19.4957 15.2521 20.6152 14.5828 21.3056L11.8733 24.101C11.2041 24.7915 10.119 24.7915 9.44981 24.101C8.78057 23.4106 8.78057 22.2911 9.44981 21.6007L12.1593 18.8053C12.8286 18.1148 13.9136 18.1148 14.5828 18.8053ZM17.6943 20.5975C18.3635 21.288 18.3635 22.4074 17.6943 23.0979L14.3013 26.5984C13.6321 27.2888 12.547 27.2888 11.8778 26.5984C11.2086 25.9079 11.2086 24.7885 11.8778 24.098L15.2707 20.5975C15.94 19.9071 17.025 19.9071 17.6943 20.5975ZM20.5215 22.6782C21.1908 23.3687 21.1908 24.4881 20.5215 25.1786L17.1286 28.6791C16.4594 29.3696 15.3743 29.3696 14.7051 28.6791C14.0358 27.9886 14.0358 26.8692 14.7051 26.1787L18.098 22.6782C18.7673 21.9878 19.8523 21.9878 20.5215 22.6782ZM22.579 25.5666C23.2482 26.257 23.2482 27.3765 22.579 28.067L21.2073 29.4822C20.538 30.1726 19.453 30.1726 18.7837 29.4822C18.1145 28.7917 18.1145 27.6723 18.7837 26.9818L20.1555 25.5666C20.8247 24.8761 21.9097 24.8761 22.579 25.5666Z" stroke="#6CE5E8" stroke-width="1.4" stroke-linecap="round" stroke-linejoin="round"/>
</svg>
