<svg width="34" height="37" viewBox="0 0 34 37" fill="none" xmlns="http://www.w3.org/2000/svg">
<path d="M32.6915 3.99381H26.5343V1.18524C26.5343 0.830935 26.226 0.522693 25.8717 0.522693H8.43448C8.08018 0.522693 7.77193 0.830935 7.77193 1.18524V3.99381H1.45142C1.27181 3.99381 1.09639 4.08311 0.966859 4.21264C0.831665 4.34783 0.788867 4.52614 0.788867 4.6972C0.788867 4.82403 0.911941 7.44266 1.85287 10.47L1.85304 10.4705C3.15943 14.5122 5.36459 17.381 8.31153 18.6997C9.29498 21.9559 11.5334 24.526 14.3466 25.5589V25.6464C14.3466 29.01 11.7945 31.6811 8.51616 31.6811C8.16185 31.6811 7.85361 31.9893 7.85361 32.3436V35.8147C7.85361 36.169 8.16185 36.4773 8.51616 36.4773H25.8717C26.226 36.4773 26.5343 36.169 26.5343 35.8147V32.3436C26.5343 31.9893 26.226 31.6811 25.8717 31.6811C22.5507 31.6811 19.8371 28.9674 19.8371 25.6464V25.6002C22.7726 24.5672 25.0524 21.9556 26.0359 18.6171C28.86 17.258 31.0241 14.4308 32.2898 10.4706C33.2558 7.492 33.3511 4.86978 33.3539 4.70345C33.3975 4.51779 33.3031 4.33968 33.176 4.21264C33.0465 4.08311 32.8711 3.99381 32.6915 3.99381ZM3.42275 10.9075C2.5767 8.61463 2.26695 6.39986 2.15992 5.31891H7.77193V15.0697C7.77193 15.7272 7.80846 16.3496 7.91638 16.9705C5.65872 15.5818 4.27186 13.2086 3.42275 10.9075ZM18.5147 25.9506C18.7053 29.6497 21.5892 32.6533 25.2092 32.9614V35.1113H9.17871V32.9614C12.7586 32.6533 15.521 29.6879 15.6294 25.9093C16.1038 25.9878 16.6178 26.0639 17.1327 26.0639C17.6051 26.0639 18.0778 26.0262 18.5147 25.9506ZM19.2812 24.4147L18.7532 24.5772C18.2251 24.6989 17.6988 24.7797 17.1735 24.7797C16.5657 24.7797 15.9582 24.6987 15.3915 24.5369C15.3617 24.5269 15.3269 24.5145 15.2895 24.5012C15.2519 24.4878 15.2119 24.4736 15.173 24.4606C15.1343 24.4477 15.096 24.4358 15.0617 24.4271C15.032 24.4195 15.0024 24.4135 14.9772 24.4124C11.6154 23.2742 9.09703 19.5414 9.09703 15.1105V1.88863H25.2092V4.28883V5.06472V15.1105C25.2092 19.5442 22.6876 23.2789 19.2818 24.4145C19.2816 24.4146 19.2814 24.4146 19.2812 24.4147ZM30.7966 10.8209C29.9725 13.0872 28.6251 15.4412 26.4256 16.888C26.5023 16.3066 26.5751 15.6885 26.5751 15.0697V5.31891H32.0238C31.9171 6.39827 31.6176 8.56316 30.7966 10.8209Z" fill="#6CE5E8" stroke="#6CE5E8" stroke-width="0.1"/>
<path d="M18.2391 5.57346L18.239 5.57322C18.0678 5.23097 17.6838 4.97386 17.2958 4.97386C16.911 4.97386 16.5246 5.18746 16.3522 5.57434L14.8533 8.61266L11.5315 9.09877C11.1427 9.14236 10.8016 9.44325 10.6737 9.82678C10.5461 10.2095 10.6294 10.6398 10.9325 10.9005L13.3626 13.2496L12.7956 16.571C12.7095 16.9608 12.8841 17.3465 13.223 17.6007C13.3942 17.7291 13.6087 17.8149 13.8656 17.8149C14.0352 17.8149 14.2076 17.7729 14.3399 17.6857L17.4177 16.1468L20.3353 17.6866L20.3353 17.6866L20.3362 17.6871C20.6774 17.8577 21.1064 17.8587 21.4503 17.6007C21.7932 17.3436 21.9209 16.9576 21.8784 16.5751L21.8785 16.5751L21.878 16.5722L21.3107 13.2496L23.742 10.8995L23.7426 10.8989C24.0418 10.5996 24.1281 10.2122 23.9997 9.82678L24.0005 9.8265L23.9959 9.81831C23.7884 9.44474 23.4913 9.14235 23.0599 9.09873L19.7384 8.61266L18.2391 5.57346ZM19.9012 13.1193L20.455 16.2443L17.7273 14.8212L17.7266 14.8208C17.5479 14.7314 17.3284 14.7333 17.1139 14.8191L17.1139 14.8189L17.1101 14.8208L14.1769 16.2874L14.7315 13.1187C14.7757 12.8963 14.687 12.676 14.5543 12.5433L14.554 12.543L12.2976 10.3262L15.4249 9.85119L15.4249 9.85124L15.4272 9.85078C15.645 9.80721 15.8221 9.67584 15.9113 9.49742L15.9115 9.49692L17.2958 6.64919L18.6802 9.49692L18.6804 9.49742C18.7654 9.66744 18.9407 9.8497 19.1704 9.85174L22.2951 10.3264L20.0807 12.5408C19.8991 12.6791 19.8584 12.9048 19.9011 13.1188C19.9011 13.119 19.9012 13.1192 19.9012 13.1193Z" fill="#6CE5E8" stroke="#6CE5E8" stroke-width="0.1"/>
</svg>
