<svg width="34" height="34" viewBox="0 0 34 34" fill="none" xmlns="http://www.w3.org/2000/svg">
<path fill-rule="evenodd" clip-rule="evenodd" d="M33.2913 28.3333C33.2913 30.2897 31.7061 31.875 29.7497 31.875H4.24967C2.29326 31.875 0.708008 30.2897 0.708008 28.3333V7.79166C0.708008 6.22695 1.97663 4.95833 3.54134 4.95833H17.8291L23.5659 2.88008C23.9293 2.74762 24.3316 2.93533 24.4641 3.29729L25.0683 4.95833H27.6247C29.1894 4.95833 30.458 6.22695 30.458 7.79166V9.20833C32.0227 9.20833 33.2913 10.477 33.2913 12.0417V28.3333ZM3.54134 6.375C2.75934 6.375 2.12467 7.00966 2.12467 7.79166C2.12467 8.57366 2.75934 9.20833 3.54134 9.20833H5.98155H6.11542C6.12463 9.20479 6.1303 9.197 6.13951 9.19345L13.9184 6.375H3.54134ZM24.1383 6.5032L23.386 4.43204H23.3853L21.9325 4.95833H21.9346L18.0289 6.375H18.0218L10.2025 9.20833H25.1214L24.1383 6.5032ZM29.0413 7.79166C29.0413 7.00966 28.4067 6.375 27.6247 6.375H25.5826L26.6125 9.20833H29.0413V7.79166ZM30.458 10.625H3.54134C3.02284 10.625 2.54259 10.4755 2.12467 10.2319V28.3333C2.12467 29.507 3.07667 30.4583 4.24967 30.4583H29.7497C30.9234 30.4583 31.8747 29.507 31.8747 28.3333V23.375H29.0413C27.4766 23.375 26.208 22.1064 26.208 20.5417C26.208 18.977 27.4766 17.7083 29.0413 17.7083H31.8747V12.0417C31.8747 11.2597 31.24 10.625 30.458 10.625ZM31.8747 21.9583V19.125H29.0413C28.2593 19.125 27.6247 19.7597 27.6247 20.5417C27.6247 21.3237 28.2593 21.9583 29.0413 21.9583H31.8747ZM29.0413 19.8333H30.458V21.25H29.0413V19.8333Z" fill="#6CE5E8"/>
</svg>
