<svg width="28" height="38" viewBox="0 0 28 38" fill="none" xmlns="http://www.w3.org/2000/svg">
<path d="M14.0007 30.0833C8.32598 30.0833 3.70898 25.4663 3.70898 19.7917V10.2917C3.70898 4.617 8.32598 0 14.0007 0C19.6753 0 24.2923 4.617 24.2923 10.2917V19.7917C24.2923 25.4663 19.6753 30.0833 14.0007 30.0833ZM14.0007 1.58333C9.19919 1.58333 5.29232 5.49021 5.29232 10.2917V19.7917C5.29232 24.5931 9.19919 28.5 14.0007 28.5C18.8021 28.5 22.709 24.5931 22.709 19.7917V10.2917C22.709 5.49021 18.8021 1.58333 14.0007 1.58333Z" fill="#6CE5E8"/>
<path d="M14.0003 33.25C6.45416 33.25 0.541992 27.3386 0.541992 19.7916V16.625C0.541992 16.188 0.895867 15.8333 1.33366 15.8333C1.77145 15.8333 2.12533 16.188 2.12533 16.625V19.7916C2.12533 26.4504 7.34162 31.6666 14.0003 31.6666C20.659 31.6666 25.8753 26.4504 25.8753 19.7916V16.625C25.8753 16.188 26.2292 15.8333 26.667 15.8333C27.1048 15.8333 27.4587 16.188 27.4587 16.625V19.7916C27.4587 27.3386 21.5465 33.25 14.0003 33.25Z" fill="#6CE5E8"/>
<path d="M14.7923 32.4583H13.209V38H14.7923V32.4583Z" fill="#6CE5E8"/>
<path d="M14.0007 6.33333C13.5629 6.33333 13.209 5.97867 13.209 5.54167V0.791667C13.209 0.354667 13.5629 0 14.0007 0C14.4384 0 14.7923 0.354667 14.7923 0.791667V5.54167C14.7923 5.97867 14.4384 6.33333 14.0007 6.33333Z" fill="#6CE5E8"/>
<path d="M17.1667 6.33334C16.7289 6.33334 16.375 5.97867 16.375 5.54167V1.33238C16.375 0.895377 16.7289 0.54071 17.1667 0.54071C17.6045 0.54071 17.9583 0.895377 17.9583 1.33238V5.54167C17.9583 5.97867 17.6045 6.33334 17.1667 6.33334Z" fill="#6CE5E8"/>
<path d="M10.8337 6.33334C10.3959 6.33334 10.042 5.97867 10.042 5.54167V1.33238C10.042 0.895377 10.3959 0.54071 10.8337 0.54071C11.2715 0.54071 11.6253 0.895377 11.6253 1.33238V5.54167C11.6253 5.97867 11.2715 6.33334 10.8337 6.33334Z" fill="#6CE5E8"/>
<path d="M26.6673 19H1.33398V20.5833H26.6673V19Z" fill="#6CE5E8"/>
<path d="M10.834 11.0833H4.50065C4.06286 11.0833 3.70898 10.7287 3.70898 10.2917C3.70898 9.85467 4.06286 9.5 4.50065 9.5H10.834C11.2718 9.5 11.6257 9.85467 11.6257 10.2917C11.6257 10.7287 11.2718 11.0833 10.834 11.0833Z" fill="#6CE5E8"/>
<path d="M10.834 14.25H4.50065C4.06286 14.25 3.70898 13.8954 3.70898 13.4584C3.70898 13.0214 4.06286 12.6667 4.50065 12.6667H10.834C11.2718 12.6667 11.6257 13.0214 11.6257 13.4584C11.6257 13.8954 11.2718 14.25 10.834 14.25Z" fill="#6CE5E8"/>
<path d="M23.5 11.0833H17.1667C16.7289 11.0833 16.375 10.7287 16.375 10.2917C16.375 9.85467 16.7289 9.5 17.1667 9.5H23.5C23.9378 9.5 24.2917 9.85467 24.2917 10.2917C24.2917 10.7287 23.9378 11.0833 23.5 11.0833Z" fill="#6CE5E8"/>
<path d="M23.5 14.25H17.1667C16.7289 14.25 16.375 13.8954 16.375 13.4584C16.375 13.0214 16.7289 12.6667 17.1667 12.6667H23.5C23.9378 12.6667 24.2917 13.0214 24.2917 13.4584C24.2917 13.8954 23.9378 14.25 23.5 14.25Z" fill="#6CE5E8"/>
<path d="M10.834 17.4166H4.50065C4.06286 17.4166 3.70898 17.062 3.70898 16.625C3.70898 16.188 4.06286 15.8333 4.50065 15.8333H10.834C11.2718 15.8333 11.6257 16.188 11.6257 16.625C11.6257 17.062 11.2718 17.4166 10.834 17.4166Z" fill="#6CE5E8"/>
<path d="M23.5 17.4166H17.1667C16.7289 17.4166 16.375 17.062 16.375 16.625C16.375 16.188 16.7289 15.8333 17.1667 15.8333H23.5C23.9378 15.8333 24.2917 16.188 24.2917 16.625C24.2917 17.062 23.9378 17.4166 23.5 17.4166Z" fill="#6CE5E8"/>
</svg>
