<svg width="70" height="71" viewBox="0 0 70 71" fill="none" xmlns="http://www.w3.org/2000/svg">
<path fill-rule="evenodd" clip-rule="evenodd" d="M44.0183 41.0245H40.3332L38.0111 54.4462H30.767L37.1276 17.7131L48.2335 17.7383C51.5148 17.8392 54.0305 18.8484 55.7805 20.7658C57.5305 22.6831 58.271 25.2985 58.0017 28.6119C57.581 33.6408 55.2925 37.1392 51.1362 39.1071L51.1426 39.1331C50.9463 39.2328 49.8805 39.7481 47.6899 40.3569C45.5113 40.9624 44.2645 41.0277 44.0207 41.0348L44.0183 41.0245ZM44.2263 41.9462L47.0472 54.4462H54.8214V54.0425L51.3802 40.0958C51.1764 40.2067 50.0987 40.7595 47.8705 41.3324C45.7378 41.8808 44.5306 41.9404 44.2263 41.9462ZM41.3933 34.8434L45.2047 34.8939C46.9547 34.8602 48.3345 34.1706 49.3441 32.8251C50.3538 31.4628 50.8502 29.6631 50.8333 27.4262C50.766 25.2228 49.7985 24.0539 47.9307 23.9194L43.3116 23.8941L41.3933 34.8434ZM19.989 17.7383C19.989 17.7383 20.5176 25.5905 23.3337 34.8434C26.1498 44.0963 30.5745 50.385 30.5745 50.385L29.8706 54.4462H22.3236C22.3236 54.4462 18.1032 47.9712 15.2871 37.5115C12.471 27.0517 12.6225 19.8075 12.6225 19.8075L14.3142 17.7383H19.989Z" fill="#6CE5E8"/>
<circle cx="35" cy="35.5" r="31.9399" stroke="#6CE5E8" stroke-width="6.12022"/>
</svg>
