<svg width="70" height="94" viewBox="0 0 70 94" fill="none" xmlns="http://www.w3.org/2000/svg">
<path d="M70 35.25C70 54.718 42.695 94 35 94C27.305 94 0 54.718 0 35.25C0 15.782 15.67 0 35 0C54.33 0 70 15.782 70 35.25Z" fill="#02283F"/>
<path fill-rule="evenodd" clip-rule="evenodd" d="M19.556 36.3932C17.8552 30.0758 17.5174 25.2354 17.4531 23.279C18.0499 22.3643 18.7155 21.4987 19.4428 20.6895H23.2903C23.2903 20.6895 23.7101 26.9257 25.9466 34.2743C28.1831 41.6229 31.6972 46.6174 31.6972 46.6174L31.1381 49.8427H25.1444C25.1444 49.8427 21.7925 44.7004 19.556 36.3932ZM50.0095 49.8427C50.2886 49.5671 50.56 49.2838 50.8235 48.9931L48.2212 38.4466C48.059 38.5348 47.2031 38.9737 45.434 39.4286C43.7398 39.8642 42.781 39.9115 42.5396 39.916L44.7798 49.8427H50.0095ZM42.3763 39.1922L42.3742 39.1833H39.4475L37.6033 49.8427H31.8501L36.9017 20.6694L45.7219 20.6895C48.3279 20.7696 50.3259 21.5711 51.7157 23.0939C53.1056 24.6166 53.6936 26.6938 53.4798 29.3252C53.1457 33.3192 51.3282 36.0976 48.0272 37.6605L48.0325 37.682C47.8763 37.7613 47.0298 38.1705 45.2905 38.6539C43.5598 39.1349 42.5695 39.1867 42.3763 39.1922ZM40.2895 34.2743L43.3164 34.3144C44.7063 34.2876 45.8021 33.74 46.604 32.6714C47.4058 31.5894 47.8001 30.1601 47.7867 28.3835C47.7332 26.6337 46.9648 25.7053 45.4814 25.5984L41.8129 25.5784L40.2895 34.2743Z" fill="#6CE5E8"/>
<circle cx="35.2109" cy="34.7969" r="24.7368" stroke="#6CE5E8" stroke-width="6.12022"/>
</svg>
