<svg width="47" height="43" viewBox="0 0 47 43" fill="none" xmlns="http://www.w3.org/2000/svg">
<path d="M2.82812 42.5312H44.1719C45.5073 42.5312 46.5938 41.4448 46.5938 40.1094V30.9219C46.5938 30.4302 46.1948 30.0312 45.7031 30.0312C45.2115 30.0312 44.8125 30.4302 44.8125 30.9219V40.1094C44.8125 40.4614 44.5239 40.75 44.1719 40.75H2.82812C2.47607 40.75 2.1875 40.4614 2.1875 40.1094V30.9219C2.1875 30.4302 1.78854 30.0312 1.29688 30.0312C0.805214 30.0312 0.40625 30.4302 0.40625 30.9219V40.1094C0.40625 41.4448 1.49275 42.5312 2.82812 42.5312ZM31.0312 6.42188C31.0312 6.91354 31.4302 7.3125 31.9219 7.3125C32.4135 7.3125 32.8125 6.91354 32.8125 6.42188V3.35938C32.8125 2.024 31.726 0.9375 30.3906 0.9375H16.6094C15.274 0.9375 14.1875 2.024 14.1875 3.35938V6.42188C14.1875 6.91354 14.5865 7.3125 15.0781 7.3125C15.5698 7.3125 15.9688 6.91354 15.9688 6.42188V3.35938C15.9688 3.00732 16.2573 2.71875 16.6094 2.71875H30.3906C30.7427 2.71875 31.0312 3.00732 31.0312 3.35938V6.42188ZM38.0469 30.2812H41.1094C44.1337 30.2812 46.5938 27.8212 46.5938 24.7969V9.48438C46.5938 8.99271 46.1948 8.59375 45.7031 8.59375H4.35938C3.86771 8.59375 3.46875 8.99271 3.46875 9.48438C3.46875 9.97604 3.86771 10.375 4.35938 10.375H44.8125V24.7969C44.8125 26.8394 43.1519 28.5 41.1094 28.5H38.0469C37.5552 28.5 37.1562 28.899 37.1562 29.3906C37.1562 29.8823 37.5552 30.2812 38.0469 30.2812ZM5.89062 30.2812H8.95312C9.44479 30.2812 9.84375 29.8823 9.84375 29.3906C9.84375 28.899 9.44479 28.5 8.95312 28.5H5.89062C3.84807 28.5 2.1875 26.8394 2.1875 24.7969V9.48438C2.1875 8.99271 1.78854 8.59375 1.29688 8.59375C0.805214 8.59375 0.40625 8.99271 0.40625 9.48438V24.7969C0.40625 27.8212 2.86628 30.2812 5.89062 30.2812ZM18.1406 30.2812H28.8594C29.351 30.2812 29.75 29.8823 29.75 29.3906C29.75 28.899 29.351 28.5 28.8594 28.5H18.1406C17.649 28.5 17.25 28.899 17.25 29.3906C17.25 29.8823 17.649 30.2812 18.1406 30.2812ZM11.125 30.9219C11.125 32.2573 12.2115 33.3438 13.5469 33.3438C14.8823 33.3438 15.9688 32.2573 15.9688 30.9219V26.3281C15.9688 25.8365 15.5698 25.4375 15.0781 25.4375H12.0156C11.524 25.4375 11.125 25.8365 11.125 26.3281V30.9219ZM12.9062 30.9219V27.2188H14.1875V30.9219C14.1875 31.2739 13.8989 31.5625 13.5469 31.5625C13.1948 31.5625 12.9062 31.2739 12.9062 30.9219ZM31.0312 30.9219C31.0312 32.2573 32.1177 33.3438 33.4531 33.3438C34.7885 33.3438 35.875 32.2573 35.875 30.9219V26.3281C35.875 25.8365 35.476 25.4375 34.9844 25.4375H31.9219C31.4302 25.4375 31.0312 25.8365 31.0312 26.3281V30.9219ZM32.8125 30.9219V27.2188H34.0938V30.9219C34.0938 31.2739 33.8052 31.5625 33.4531 31.5625C33.1011 31.5625 32.8125 31.2739 32.8125 30.9219Z" fill="#6CE5E8" stroke="#6CE5E8" stroke-width="0.25"/>
</svg>
