<svg width="17" height="17" viewBox="0 0 17 17" fill="none" xmlns="http://www.w3.org/2000/svg">
<path d="M6.15392 4.56032L2.45246 0.856962L2.88933 0.42374C3.45388 -0.141247 4.44034 -0.141247 5.00488 0.42374L6.58681 2.0069C6.87008 2.29039 7.02568 2.66672 7.02568 3.066C7.02568 3.46528 6.87008 3.84161 6.58881 4.1241L6.15392 4.56032Z" fill="#2E686A"/>
<path d="M12.8646 10.4058C13.4292 9.84084 14.4157 9.84084 14.9802 10.4058L16.5621 11.989C16.8444 12.2725 17 12.6488 17 13.0481C17 13.4474 16.8444 13.8237 16.5601 14.1082L16.1243 14.5394L12.4308 10.843L12.8646 10.4058Z" fill="#2E686A"/>
<path d="M1.10393 2.21053L1.45702 1.85717L5.1555 5.55853L4.50717 6.20637C4.41241 6.3012 4.36154 6.42597 4.36154 6.55973C4.36154 6.69349 4.41341 6.81827 4.50717 6.9131L10.0788 12.4891C10.2673 12.6768 10.5955 12.6778 10.784 12.4891L11.4323 11.8403L15.1248 15.5436L14.7717 15.897C14.5124 16.1565 13.5289 17 11.7236 17C10.1117 17 7.47852 16.2893 4.09323 12.9024C-2.66237 6.13948 0.943341 2.37125 1.10393 2.21053Z" fill="#2E686A"/>
</svg>
