<svg width="24" height="24" viewBox="0 0 24 24" fill="none" xmlns="http://www.w3.org/2000/svg">
<g clip-path="url(#clip0_155_243)">
<mask id="path-1-outside-1_155_243" maskUnits="userSpaceOnUse" x="-0.849609" y="0.481201" width="25" height="23" fill="black">
<rect fill="white" x="-0.849609" y="0.481201" width="25" height="23"/>
<path d="M12.0004 6.1687C13.2941 6.1687 14.3441 5.1187 14.3441 3.82495C14.3441 2.5312 13.2941 1.4812 12.0004 1.4812C10.7066 1.4812 9.65664 2.5312 9.65664 3.82495C9.65664 5.10933 10.7066 6.1687 12.0004 6.1687ZM12.0004 2.43745C12.7598 2.43745 13.3879 3.0562 13.3879 3.82495C13.3879 4.58433 12.7691 5.21245 12.0004 5.21245C11.241 5.21245 10.6129 4.5937 10.6129 3.82495C10.6223 3.0562 11.241 2.43745 12.0004 2.43745Z"/>
<path d="M6.90039 15.2718C6.70352 15.3187 6.55352 15.4968 6.54414 15.7031L6.18789 21.1874C6.17852 21.4031 6.00039 21.5624 5.78477 21.5624H3.06602C2.85039 21.5624 2.67227 21.3937 2.66289 21.1874L2.29727 15.7125C2.28789 15.5156 2.14727 15.3468 1.95977 15.2906C1.85664 15.2625 1.55664 15.1687 1.50977 15.1124C1.47227 15.0562 1.45352 14.7468 1.44414 14.5875L1.11602 8.78432C1.58477 8.6437 2.35352 8.39995 2.75664 8.2687L4.09727 9.52495C4.28477 9.6937 4.56602 9.6937 4.75352 9.52495L6.09414 8.2687C6.22539 8.3062 6.38477 8.36245 6.56289 8.4187C6.81602 8.50308 7.08789 8.36245 7.16289 8.10933C7.24727 7.8562 7.10664 7.58432 6.85352 7.50933C6.45039 7.37808 6.12227 7.27495 6.12227 7.27495C5.95352 7.2187 5.77539 7.26557 5.64414 7.37808L4.42539 8.52183L3.20664 7.37808C3.07539 7.2562 2.89727 7.2187 2.72852 7.27495C2.72852 7.27495 1.44414 7.68745 0.797266 7.88433C0.394141 8.0062 0.150391 8.32495 0.150391 8.74683C0.150391 8.77495 0.150391 8.84995 0.150391 8.84995L0.469141 14.5687C0.469141 14.5687 0.469141 14.6531 0.478516 14.6718C0.534766 15.5156 0.656641 15.8249 1.35977 16.0968L1.69727 21.2531C1.74414 21.9656 2.34414 22.5281 3.05664 22.5281H5.77539C6.48789 22.5281 7.08789 21.9656 7.13477 21.2531L7.48164 15.9093C7.51914 15.8156 7.51914 15.7031 7.49102 15.5999C7.42539 15.3468 7.15352 15.2062 6.90039 15.2718Z"/>
<path d="M4.41602 6.49683C5.70977 6.49683 6.75977 5.44683 6.75977 4.15308C6.75977 2.85933 5.70977 1.80933 4.41602 1.80933C3.12227 1.80933 2.07227 2.85933 2.07227 4.15308C2.07227 5.44683 3.13164 6.49683 4.41602 6.49683ZM4.41602 2.77495C5.17539 2.77495 5.80352 3.3937 5.80352 4.16245C5.80352 4.9312 5.18477 5.54995 4.41602 5.54995C3.65664 5.54995 3.02852 4.9312 3.02852 4.16245C3.02852 3.3937 3.65664 2.77495 4.41602 2.77495Z"/>
<path d="M15.6285 7.86558C14.9816 7.6687 13.6973 7.2562 13.6973 7.2562C13.5285 7.19995 13.3504 7.24683 13.2191 7.35933L12.0004 8.50308L10.7816 7.35933C10.6504 7.23745 10.4723 7.19995 10.3035 7.2562C10.3035 7.2562 9.01914 7.6687 8.37227 7.86558C7.95977 7.98745 7.72539 8.3062 7.72539 8.72808L8.04414 14.5687L8.05352 14.6624C8.10977 15.5062 8.23164 15.825 8.93477 16.0875L9.27227 21.2437C9.31914 21.9562 9.91914 22.5187 10.6316 22.5187H13.3598C14.0723 22.5187 14.6723 21.9562 14.7191 21.2437L15.0566 16.0875C15.7598 15.8156 15.8816 15.4968 15.9379 14.6624L16.266 8.81245V8.72808C16.2754 8.29683 16.041 7.98745 15.6285 7.86558ZM14.991 14.4937L14.9816 14.5875C14.9723 14.7374 14.9535 15.0374 14.916 15.0937C14.8691 15.1499 14.5598 15.2437 14.4566 15.2718C14.2691 15.3281 14.1285 15.4968 14.1191 15.7031L13.7629 21.1781C13.7535 21.3937 13.5754 21.5531 13.3598 21.5531H10.6316C10.416 21.5531 10.2473 21.3843 10.2285 21.1781L9.87227 15.7031C9.86289 15.5062 9.72227 15.3374 9.53477 15.2718C9.43164 15.2437 9.13164 15.1499 9.08477 15.0937C9.04727 15.0374 9.02851 14.7281 9.01914 14.5875L8.69102 8.78433V8.7562C9.15977 8.61558 9.92851 8.37183 10.3316 8.24058L11.6723 9.49683C11.8598 9.66558 12.141 9.66558 12.3285 9.49683L13.6691 8.24995C14.0723 8.3812 14.841 8.62495 15.3098 8.76558L14.991 14.4937Z"/>
<path d="M23.2129 7.86558C22.566 7.6687 21.2816 7.2562 21.2816 7.2562C21.1129 7.19995 20.9348 7.24683 20.8035 7.35933L19.5848 8.50308L18.366 7.35933C18.2348 7.23745 18.0566 7.19995 17.8879 7.2562C17.8879 7.2562 17.5598 7.35933 17.1566 7.49058C16.9035 7.57495 16.7629 7.83745 16.8473 8.09058C16.9316 8.3437 17.1941 8.48433 17.4473 8.39995C17.6254 8.3437 17.7848 8.28745 17.916 8.24995L19.2566 9.5062C19.4441 9.67495 19.7254 9.67495 19.9129 9.5062L21.2535 8.24995C21.6566 8.3812 22.416 8.61558 22.8941 8.76558L22.5754 14.4937L22.566 14.5875C22.5566 14.7374 22.5379 15.0374 22.5004 15.0937C22.4535 15.1499 22.1441 15.2437 22.041 15.2718C21.8535 15.3281 21.7129 15.4968 21.7035 15.7031L21.3473 21.1781C21.3285 21.3937 21.1504 21.5531 20.9441 21.5531H18.216C18.0098 21.5531 17.8316 21.3843 17.8129 21.1781L17.4473 15.7031C17.4379 15.5062 17.2785 15.3374 17.091 15.2718C16.8379 15.1874 16.5848 15.3281 16.5004 15.5812C16.4723 15.6749 16.4723 15.7781 16.5004 15.8624L16.8566 21.2437C16.9035 21.9562 17.4941 22.5187 18.216 22.5187H20.9441C21.6566 22.5187 22.2566 21.9562 22.3035 21.2437L22.641 16.0875C23.3441 15.8156 23.466 15.5062 23.5223 14.6718C23.5223 14.6343 23.5316 14.5499 23.5316 14.5499L23.8504 8.80308V8.7187C23.8504 8.3062 23.616 7.98745 23.2129 7.86558Z"/>
<path d="M19.5848 6.49683C20.8785 6.49683 21.9285 5.44683 21.9285 4.15308C21.9285 2.85933 20.8785 1.80933 19.5848 1.80933C18.291 1.80933 17.241 2.85933 17.241 4.15308C17.241 5.44683 18.291 6.49683 19.5848 6.49683ZM19.5848 2.77495C20.3441 2.77495 20.9723 3.3937 20.9723 4.16245C20.9723 4.9312 20.3535 5.54995 19.5848 5.54995C18.8254 5.54995 18.1973 4.9312 18.1973 4.16245C18.1973 3.3937 18.816 2.77495 19.5848 2.77495Z"/>
</mask>
<path d="M12.0004 6.1687C13.2941 6.1687 14.3441 5.1187 14.3441 3.82495C14.3441 2.5312 13.2941 1.4812 12.0004 1.4812C10.7066 1.4812 9.65664 2.5312 9.65664 3.82495C9.65664 5.10933 10.7066 6.1687 12.0004 6.1687ZM12.0004 2.43745C12.7598 2.43745 13.3879 3.0562 13.3879 3.82495C13.3879 4.58433 12.7691 5.21245 12.0004 5.21245C11.241 5.21245 10.6129 4.5937 10.6129 3.82495C10.6223 3.0562 11.241 2.43745 12.0004 2.43745Z" fill="white"/>
<path d="M6.90039 15.2718C6.70352 15.3187 6.55352 15.4968 6.54414 15.7031L6.18789 21.1874C6.17852 21.4031 6.00039 21.5624 5.78477 21.5624H3.06602C2.85039 21.5624 2.67227 21.3937 2.66289 21.1874L2.29727 15.7125C2.28789 15.5156 2.14727 15.3468 1.95977 15.2906C1.85664 15.2625 1.55664 15.1687 1.50977 15.1124C1.47227 15.0562 1.45352 14.7468 1.44414 14.5875L1.11602 8.78432C1.58477 8.6437 2.35352 8.39995 2.75664 8.2687L4.09727 9.52495C4.28477 9.6937 4.56602 9.6937 4.75352 9.52495L6.09414 8.2687C6.22539 8.3062 6.38477 8.36245 6.56289 8.4187C6.81602 8.50308 7.08789 8.36245 7.16289 8.10933C7.24727 7.8562 7.10664 7.58432 6.85352 7.50933C6.45039 7.37808 6.12227 7.27495 6.12227 7.27495C5.95352 7.2187 5.77539 7.26557 5.64414 7.37808L4.42539 8.52183L3.20664 7.37808C3.07539 7.2562 2.89727 7.2187 2.72852 7.27495C2.72852 7.27495 1.44414 7.68745 0.797266 7.88433C0.394141 8.0062 0.150391 8.32495 0.150391 8.74683C0.150391 8.77495 0.150391 8.84995 0.150391 8.84995L0.469141 14.5687C0.469141 14.5687 0.469141 14.6531 0.478516 14.6718C0.534766 15.5156 0.656641 15.8249 1.35977 16.0968L1.69727 21.2531C1.74414 21.9656 2.34414 22.5281 3.05664 22.5281H5.77539C6.48789 22.5281 7.08789 21.9656 7.13477 21.2531L7.48164 15.9093C7.51914 15.8156 7.51914 15.7031 7.49102 15.5999C7.42539 15.3468 7.15352 15.2062 6.90039 15.2718Z" fill="white"/>
<path d="M4.41602 6.49683C5.70977 6.49683 6.75977 5.44683 6.75977 4.15308C6.75977 2.85933 5.70977 1.80933 4.41602 1.80933C3.12227 1.80933 2.07227 2.85933 2.07227 4.15308C2.07227 5.44683 3.13164 6.49683 4.41602 6.49683ZM4.41602 2.77495C5.17539 2.77495 5.80352 3.3937 5.80352 4.16245C5.80352 4.9312 5.18477 5.54995 4.41602 5.54995C3.65664 5.54995 3.02852 4.9312 3.02852 4.16245C3.02852 3.3937 3.65664 2.77495 4.41602 2.77495Z" fill="white"/>
<path d="M15.6285 7.86558C14.9816 7.6687 13.6973 7.2562 13.6973 7.2562C13.5285 7.19995 13.3504 7.24683 13.2191 7.35933L12.0004 8.50308L10.7816 7.35933C10.6504 7.23745 10.4723 7.19995 10.3035 7.2562C10.3035 7.2562 9.01914 7.6687 8.37227 7.86558C7.95977 7.98745 7.72539 8.3062 7.72539 8.72808L8.04414 14.5687L8.05352 14.6624C8.10977 15.5062 8.23164 15.825 8.93477 16.0875L9.27227 21.2437C9.31914 21.9562 9.91914 22.5187 10.6316 22.5187H13.3598C14.0723 22.5187 14.6723 21.9562 14.7191 21.2437L15.0566 16.0875C15.7598 15.8156 15.8816 15.4968 15.9379 14.6624L16.266 8.81245V8.72808C16.2754 8.29683 16.041 7.98745 15.6285 7.86558ZM14.991 14.4937L14.9816 14.5875C14.9723 14.7374 14.9535 15.0374 14.916 15.0937C14.8691 15.1499 14.5598 15.2437 14.4566 15.2718C14.2691 15.3281 14.1285 15.4968 14.1191 15.7031L13.7629 21.1781C13.7535 21.3937 13.5754 21.5531 13.3598 21.5531H10.6316C10.416 21.5531 10.2473 21.3843 10.2285 21.1781L9.87227 15.7031C9.86289 15.5062 9.72227 15.3374 9.53477 15.2718C9.43164 15.2437 9.13164 15.1499 9.08477 15.0937C9.04727 15.0374 9.02851 14.7281 9.01914 14.5875L8.69102 8.78433V8.7562C9.15977 8.61558 9.92851 8.37183 10.3316 8.24058L11.6723 9.49683C11.8598 9.66558 12.141 9.66558 12.3285 9.49683L13.6691 8.24995C14.0723 8.3812 14.841 8.62495 15.3098 8.76558L14.991 14.4937Z" fill="white"/>
<path d="M23.2129 7.86558C22.566 7.6687 21.2816 7.2562 21.2816 7.2562C21.1129 7.19995 20.9348 7.24683 20.8035 7.35933L19.5848 8.50308L18.366 7.35933C18.2348 7.23745 18.0566 7.19995 17.8879 7.2562C17.8879 7.2562 17.5598 7.35933 17.1566 7.49058C16.9035 7.57495 16.7629 7.83745 16.8473 8.09058C16.9316 8.3437 17.1941 8.48433 17.4473 8.39995C17.6254 8.3437 17.7848 8.28745 17.916 8.24995L19.2566 9.5062C19.4441 9.67495 19.7254 9.67495 19.9129 9.5062L21.2535 8.24995C21.6566 8.3812 22.416 8.61558 22.8941 8.76558L22.5754 14.4937L22.566 14.5875C22.5566 14.7374 22.5379 15.0374 22.5004 15.0937C22.4535 15.1499 22.1441 15.2437 22.041 15.2718C21.8535 15.3281 21.7129 15.4968 21.7035 15.7031L21.3473 21.1781C21.3285 21.3937 21.1504 21.5531 20.9441 21.5531H18.216C18.0098 21.5531 17.8316 21.3843 17.8129 21.1781L17.4473 15.7031C17.4379 15.5062 17.2785 15.3374 17.091 15.2718C16.8379 15.1874 16.5848 15.3281 16.5004 15.5812C16.4723 15.6749 16.4723 15.7781 16.5004 15.8624L16.8566 21.2437C16.9035 21.9562 17.4941 22.5187 18.216 22.5187H20.9441C21.6566 22.5187 22.2566 21.9562 22.3035 21.2437L22.641 16.0875C23.3441 15.8156 23.466 15.5062 23.5223 14.6718C23.5223 14.6343 23.5316 14.5499 23.5316 14.5499L23.8504 8.80308V8.7187C23.8504 8.3062 23.616 7.98745 23.2129 7.86558Z" fill="white"/>
<path d="M19.5848 6.49683C20.8785 6.49683 21.9285 5.44683 21.9285 4.15308C21.9285 2.85933 20.8785 1.80933 19.5848 1.80933C18.291 1.80933 17.241 2.85933 17.241 4.15308C17.241 5.44683 18.291 6.49683 19.5848 6.49683ZM19.5848 2.77495C20.3441 2.77495 20.9723 3.3937 20.9723 4.16245C20.9723 4.9312 20.3535 5.54995 19.5848 5.54995C18.8254 5.54995 18.1973 4.9312 18.1973 4.16245C18.1973 3.3937 18.816 2.77495 19.5848 2.77495Z" fill="white"/>
<path d="M12.0004 6.1687C13.2941 6.1687 14.3441 5.1187 14.3441 3.82495C14.3441 2.5312 13.2941 1.4812 12.0004 1.4812C10.7066 1.4812 9.65664 2.5312 9.65664 3.82495C9.65664 5.10933 10.7066 6.1687 12.0004 6.1687ZM12.0004 2.43745C12.7598 2.43745 13.3879 3.0562 13.3879 3.82495C13.3879 4.58433 12.7691 5.21245 12.0004 5.21245C11.241 5.21245 10.6129 4.5937 10.6129 3.82495C10.6223 3.0562 11.241 2.43745 12.0004 2.43745Z" stroke="white" stroke-width="0.6" mask="url(#path-1-outside-1_155_243)"/>
<path d="M6.90039 15.2718C6.70352 15.3187 6.55352 15.4968 6.54414 15.7031L6.18789 21.1874C6.17852 21.4031 6.00039 21.5624 5.78477 21.5624H3.06602C2.85039 21.5624 2.67227 21.3937 2.66289 21.1874L2.29727 15.7125C2.28789 15.5156 2.14727 15.3468 1.95977 15.2906C1.85664 15.2625 1.55664 15.1687 1.50977 15.1124C1.47227 15.0562 1.45352 14.7468 1.44414 14.5875L1.11602 8.78432C1.58477 8.6437 2.35352 8.39995 2.75664 8.2687L4.09727 9.52495C4.28477 9.6937 4.56602 9.6937 4.75352 9.52495L6.09414 8.2687C6.22539 8.3062 6.38477 8.36245 6.56289 8.4187C6.81602 8.50308 7.08789 8.36245 7.16289 8.10933C7.24727 7.8562 7.10664 7.58432 6.85352 7.50933C6.45039 7.37808 6.12227 7.27495 6.12227 7.27495C5.95352 7.2187 5.77539 7.26557 5.64414 7.37808L4.42539 8.52183L3.20664 7.37808C3.07539 7.2562 2.89727 7.2187 2.72852 7.27495C2.72852 7.27495 1.44414 7.68745 0.797266 7.88433C0.394141 8.0062 0.150391 8.32495 0.150391 8.74683C0.150391 8.77495 0.150391 8.84995 0.150391 8.84995L0.469141 14.5687C0.469141 14.5687 0.469141 14.6531 0.478516 14.6718C0.534766 15.5156 0.656641 15.8249 1.35977 16.0968L1.69727 21.2531C1.74414 21.9656 2.34414 22.5281 3.05664 22.5281H5.77539C6.48789 22.5281 7.08789 21.9656 7.13477 21.2531L7.48164 15.9093C7.51914 15.8156 7.51914 15.7031 7.49102 15.5999C7.42539 15.3468 7.15352 15.2062 6.90039 15.2718Z" stroke="white" stroke-width="0.6" mask="url(#path-1-outside-1_155_243)"/>
<path d="M4.41602 6.49683C5.70977 6.49683 6.75977 5.44683 6.75977 4.15308C6.75977 2.85933 5.70977 1.80933 4.41602 1.80933C3.12227 1.80933 2.07227 2.85933 2.07227 4.15308C2.07227 5.44683 3.13164 6.49683 4.41602 6.49683ZM4.41602 2.77495C5.17539 2.77495 5.80352 3.3937 5.80352 4.16245C5.80352 4.9312 5.18477 5.54995 4.41602 5.54995C3.65664 5.54995 3.02852 4.9312 3.02852 4.16245C3.02852 3.3937 3.65664 2.77495 4.41602 2.77495Z" stroke="white" stroke-width="0.6" mask="url(#path-1-outside-1_155_243)"/>
<path d="M15.6285 7.86558C14.9816 7.6687 13.6973 7.2562 13.6973 7.2562C13.5285 7.19995 13.3504 7.24683 13.2191 7.35933L12.0004 8.50308L10.7816 7.35933C10.6504 7.23745 10.4723 7.19995 10.3035 7.2562C10.3035 7.2562 9.01914 7.6687 8.37227 7.86558C7.95977 7.98745 7.72539 8.3062 7.72539 8.72808L8.04414 14.5687L8.05352 14.6624C8.10977 15.5062 8.23164 15.825 8.93477 16.0875L9.27227 21.2437C9.31914 21.9562 9.91914 22.5187 10.6316 22.5187H13.3598C14.0723 22.5187 14.6723 21.9562 14.7191 21.2437L15.0566 16.0875C15.7598 15.8156 15.8816 15.4968 15.9379 14.6624L16.266 8.81245V8.72808C16.2754 8.29683 16.041 7.98745 15.6285 7.86558ZM14.991 14.4937L14.9816 14.5875C14.9723 14.7374 14.9535 15.0374 14.916 15.0937C14.8691 15.1499 14.5598 15.2437 14.4566 15.2718C14.2691 15.3281 14.1285 15.4968 14.1191 15.7031L13.7629 21.1781C13.7535 21.3937 13.5754 21.5531 13.3598 21.5531H10.6316C10.416 21.5531 10.2473 21.3843 10.2285 21.1781L9.87227 15.7031C9.86289 15.5062 9.72227 15.3374 9.53477 15.2718C9.43164 15.2437 9.13164 15.1499 9.08477 15.0937C9.04727 15.0374 9.02851 14.7281 9.01914 14.5875L8.69102 8.78433V8.7562C9.15977 8.61558 9.92851 8.37183 10.3316 8.24058L11.6723 9.49683C11.8598 9.66558 12.141 9.66558 12.3285 9.49683L13.6691 8.24995C14.0723 8.3812 14.841 8.62495 15.3098 8.76558L14.991 14.4937Z" stroke="white" stroke-width="0.6" mask="url(#path-1-outside-1_155_243)"/>
<path d="M23.2129 7.86558C22.566 7.6687 21.2816 7.2562 21.2816 7.2562C21.1129 7.19995 20.9348 7.24683 20.8035 7.35933L19.5848 8.50308L18.366 7.35933C18.2348 7.23745 18.0566 7.19995 17.8879 7.2562C17.8879 7.2562 17.5598 7.35933 17.1566 7.49058C16.9035 7.57495 16.7629 7.83745 16.8473 8.09058C16.9316 8.3437 17.1941 8.48433 17.4473 8.39995C17.6254 8.3437 17.7848 8.28745 17.916 8.24995L19.2566 9.5062C19.4441 9.67495 19.7254 9.67495 19.9129 9.5062L21.2535 8.24995C21.6566 8.3812 22.416 8.61558 22.8941 8.76558L22.5754 14.4937L22.566 14.5875C22.5566 14.7374 22.5379 15.0374 22.5004 15.0937C22.4535 15.1499 22.1441 15.2437 22.041 15.2718C21.8535 15.3281 21.7129 15.4968 21.7035 15.7031L21.3473 21.1781C21.3285 21.3937 21.1504 21.5531 20.9441 21.5531H18.216C18.0098 21.5531 17.8316 21.3843 17.8129 21.1781L17.4473 15.7031C17.4379 15.5062 17.2785 15.3374 17.091 15.2718C16.8379 15.1874 16.5848 15.3281 16.5004 15.5812C16.4723 15.6749 16.4723 15.7781 16.5004 15.8624L16.8566 21.2437C16.9035 21.9562 17.4941 22.5187 18.216 22.5187H20.9441C21.6566 22.5187 22.2566 21.9562 22.3035 21.2437L22.641 16.0875C23.3441 15.8156 23.466 15.5062 23.5223 14.6718C23.5223 14.6343 23.5316 14.5499 23.5316 14.5499L23.8504 8.80308V8.7187C23.8504 8.3062 23.616 7.98745 23.2129 7.86558Z" stroke="white" stroke-width="0.6" mask="url(#path-1-outside-1_155_243)"/>
<path d="M19.5848 6.49683C20.8785 6.49683 21.9285 5.44683 21.9285 4.15308C21.9285 2.85933 20.8785 1.80933 19.5848 1.80933C18.291 1.80933 17.241 2.85933 17.241 4.15308C17.241 5.44683 18.291 6.49683 19.5848 6.49683ZM19.5848 2.77495C20.3441 2.77495 20.9723 3.3937 20.9723 4.16245C20.9723 4.9312 20.3535 5.54995 19.5848 5.54995C18.8254 5.54995 18.1973 4.9312 18.1973 4.16245C18.1973 3.3937 18.816 2.77495 19.5848 2.77495Z" stroke="white" stroke-width="0.6" mask="url(#path-1-outside-1_155_243)"/>
</g>
<defs>
<clipPath id="clip0_155_243">
<rect width="24" height="24" fill="white"/>
</clipPath>
</defs>
</svg>
