<svg width="24" height="24" viewBox="0 0 24 24" fill="none" xmlns="http://www.w3.org/2000/svg">
<g clip-path="url(#clip0_155_300)">
<path d="M18.4993 22.0992L16.6941 16.2843H21.4029C21.7502 16.2843 22.0217 15.9995 22.0217 15.6655V2.31553H23.2873C23.6346 2.31553 23.9061 2.03079 23.9061 1.69678C23.9061 1.35889 23.6213 1.07803 23.2779 1.07803H0.72168C0.374393 1.07803 0.10293 1.36277 0.10293 1.69678C0.10293 2.03275 0.385712 2.31553 0.72168 2.31553H1.9873V15.6655C1.9873 16.0128 2.27204 16.2843 2.60606 16.2843H7.31493L5.50966 22.0992L5.50911 22.101C5.41184 22.4293 5.59198 22.774 5.9127 22.8759C5.98471 22.9032 6.05414 22.9031 6.09691 22.903L6.10293 22.903C6.36434 22.903 6.60918 22.7305 6.69523 22.4723L6.69526 22.4723L6.69613 22.4696L8.62264 16.2936H15.3863L17.3129 22.4696L17.3131 22.4704C17.3998 22.7428 17.648 22.903 17.9061 22.903C17.968 22.903 18.0275 22.8911 18.0712 22.8823L18.0761 22.8814L18.0762 22.882L18.0893 22.8781C18.4274 22.7779 18.5967 22.4279 18.4999 22.101L18.4993 22.0992ZM3.23418 15.0562V2.3249H20.7748V15.0562H3.23418ZM6.55293 13.5187H8.00605C8.60452 13.5187 9.09355 13.0296 9.09355 12.4312V10.1905C9.09355 9.59206 8.60452 9.10303 8.00605 9.10303H6.55293C5.95446 9.10303 5.46543 9.59206 5.46543 10.1905V12.4312C5.46543 13.0296 5.95446 13.5187 6.55293 13.5187ZM7.85605 10.3405V12.2718H6.7123V10.3405H7.85605ZM11.2779 13.5187H12.7311C13.3295 13.5187 13.8186 13.0296 13.8186 12.4312V7.86553C13.8186 7.26706 13.3295 6.77803 12.7311 6.77803H11.2779C10.6795 6.77803 10.1904 7.26706 10.1904 7.86553V12.4298C10.1803 13.0313 10.6721 13.5187 11.2779 13.5187ZM12.5717 8.01553V12.2812H11.4279V8.01553H12.5717ZM15.9936 13.5187H17.4467C18.0451 13.5187 18.5342 13.0296 18.5342 12.4312V4.9499C18.5342 4.35143 18.0451 3.8624 17.4467 3.8624H15.9936C15.3951 3.8624 14.9061 4.35143 14.9061 4.9499V12.4298C14.8959 13.0313 15.3877 13.5187 15.9936 13.5187ZM17.2873 5.0999V12.2718H16.1436V5.0999H17.2873Z" fill="white" stroke="white" stroke-width="0.3"/>
</g>
<defs>
<clipPath id="clip0_155_300">
<rect width="24" height="24" fill="white"/>
</clipPath>
</defs>
</svg>
