<svg width="22" height="22" viewBox="0 0 22 22" fill="none" xmlns="http://www.w3.org/2000/svg">
<path d="M13.5636 16.1916H19.708C20.8033 16.1916 21.6913 15.3036 21.6913 14.2083V3.66659C21.6913 2.57128 20.8033 1.68325 19.708 1.68325H2.29134C1.19604 1.68325 0.308008 2.57128 0.308008 3.66659V14.2083C0.308008 15.3036 1.19604 16.1916 2.29134 16.1916H8.43536C8.14063 17.5383 7.3232 18.4846 6.54904 19.0999H5.49967C5.16337 19.0999 4.89134 19.372 4.89134 19.7083C4.89134 20.0446 5.16337 20.3166 5.49967 20.3166H16.4997C16.836 20.3166 17.108 20.0446 17.108 19.7083C17.108 19.372 16.836 19.0999 16.4997 19.0999H15.4498C14.6754 18.4847 13.8587 17.5383 13.5636 16.1916ZM9.68687 16.1916H12.312C12.5169 17.4065 13.0582 18.3643 13.6884 19.0999H8.31048C8.94071 18.3643 9.48204 17.4065 9.68687 16.1916ZM19.708 2.89992C20.1312 2.89992 20.4747 3.24343 20.4747 3.66659V12.2249H1.52467V3.66659C1.52467 3.24343 1.86818 2.89992 2.29134 2.89992H19.708ZM1.52467 13.4416H20.4747V14.2083C20.4747 14.6314 20.1312 14.9749 19.708 14.9749H13.2913H8.70801H2.29134C1.86818 14.9749 1.52467 14.6314 1.52467 14.2083V13.4416ZM10.3913 14.2083C10.3913 14.5446 10.6634 14.8166 10.9997 14.8166C11.336 14.8166 11.608 14.5446 11.608 14.2083C11.608 13.872 11.336 13.5999 10.9997 13.5999C10.6634 13.5999 10.3913 13.872 10.3913 14.2083Z" fill="white" stroke="white" stroke-width="0.3"/>
</svg>
