<svg width="24" height="24" viewBox="0 0 24 24" fill="none" xmlns="http://www.w3.org/2000/svg">
<path d="M5.90615 11.257V15.0282C5.90615 15.3735 6.17955 15.6469 6.5249 15.6469C6.87024 15.6469 7.14365 15.3735 7.14365 15.0282V9.44068V9.18988L6.92269 9.30852L2.22581 11.8304L2.14677 11.8728V11.9626V17.4256C2.13591 17.7637 2.41097 18.0469 2.75615 18.0469C3.10149 18.0469 3.3749 17.7735 3.3749 17.4282V12.6148L5.90615 11.257ZM11.5499 4.31948V17.5501C11.5499 17.8954 11.8233 18.1688 12.1686 18.1688C12.514 18.1688 12.7874 17.8954 12.7874 17.5501V2.50317V2.25262L12.5666 2.37096L7.8603 4.89283L7.78115 4.93525V5.02505V13.875C7.78115 14.2091 8.05261 14.4938 8.3999 14.4938C8.74524 14.4938 9.01865 14.2204 9.01865 13.875V5.6773L11.5499 4.31948ZM17.1936 6.73823V14.5782C17.1936 14.9235 17.4671 15.1969 17.8124 15.1969C18.1577 15.1969 18.4311 14.9235 18.4311 14.5782V4.92192V4.67113L18.2102 4.78977L13.5133 7.31164L13.4343 7.35408V7.4438V16.9382C13.4233 17.2893 13.7117 17.5594 14.0437 17.5594C14.389 17.5594 14.6624 17.286 14.6624 16.9407V8.09605L17.1936 6.73823ZM23.5681 13.6328L23.5682 13.6327L23.566 13.6291C23.457 13.4474 23.2603 13.3219 23.0343 13.3219H19.7999C19.5739 13.3219 19.3772 13.4474 19.2681 13.6291C19.1544 13.8187 19.1568 14.0545 19.266 14.2486L19.267 14.2503L19.7746 15.1262L17.322 16.6156L17.3209 16.6163C17.1245 16.7379 16.9304 16.8572 16.736 16.9766L16.7354 16.9769C16.5409 17.0964 16.3462 17.2161 16.1491 17.3381L16.1491 17.3381L16.1478 17.339C16.043 17.4053 15.9367 17.4713 15.8302 17.5374C15.6559 17.6456 15.4811 17.7541 15.3121 17.8648C14.581 18.3334 13.933 18.756 13.3315 19.1696C13.176 19.2732 13.0231 19.3791 12.8714 19.4841L12.8708 19.4845C12.7517 19.5669 12.6335 19.6488 12.5144 19.7294L8.40163 15.7084L8.3166 15.6253L8.21626 15.6891L0.641261 20.5079L0.641255 20.5079L0.639832 20.5088C0.356971 20.6933 0.268233 21.0761 0.455505 21.3632L0.455499 21.3632L0.456339 21.3645C0.577977 21.547 0.774867 21.6469 0.974897 21.6469C1.09291 21.6469 1.20262 21.6076 1.30087 21.553L1.301 21.5533L1.30856 21.5485L8.14582 17.1966L12.2983 21.248L12.3885 21.3361L12.4908 21.2623L13.0614 20.8507C13.0616 20.8506 13.0618 20.8504 13.062 20.8503C13.3809 20.6252 13.6974 20.4018 14.0229 20.1879L14.0229 20.1879L14.0251 20.1864C14.6138 19.7846 15.2497 19.3732 15.9809 18.9045L15.9821 18.9036C16.1166 18.8155 16.2536 18.7296 16.3921 18.6428L16.3927 18.6424C16.5302 18.5561 16.6693 18.4689 16.8061 18.3793C16.997 18.2583 17.1903 18.1395 17.3847 18.02L17.3852 18.0197C17.5791 17.9006 17.774 17.7808 17.9667 17.6586C17.9671 17.6584 17.9674 17.6582 17.9677 17.658L20.3364 16.2068L20.3376 16.2061L20.393 16.1729L20.8886 17.0342L20.8886 17.0343L20.89 17.0366C20.9991 17.2183 21.1958 17.3438 21.4218 17.3438C21.6478 17.3438 21.8445 17.2183 21.9535 17.0366L21.9547 17.0345L23.5757 14.233C23.6821 14.0583 23.6748 13.8224 23.5681 13.6328ZM21.9589 14.5594L21.4124 15.5062L20.8659 14.5594H21.9589Z" fill="white" stroke="white" stroke-width="0.3"/>
</svg>
