<svg width="20" height="27" viewBox="0 0 20 27" fill="none" xmlns="http://www.w3.org/2000/svg">
<mask id="path-1-inside-1_155_254" fill="white">
<path d="M17.1956 14.2108L19.2742 9.454L0 9.73744L2.07859 14.2108H4.34614L5.85785 25.0641H3.59029V26.1772H15.6839V25.0641H13.4164L14.9281 14.2108H17.1956Z"/>
<path d="M9.6371 4.72407C10.9362 4.72407 11.9991 3.66115 11.9991 2.36203C11.9991 1.06292 10.9362 0 9.6371 0C8.33798 0 7.27507 1.06292 7.27507 2.36203C7.27507 3.66115 8.33798 4.72407 9.6371 4.72407Z"/>
<path d="M14.4202 7.49946C14.3612 7.26326 14.2431 7.02705 14.0659 6.8499C13.3573 6.25939 12.5306 5.84604 11.5858 5.55078C10.9362 5.43268 10.2867 5.31458 9.6371 5.31458C8.98754 5.31458 8.33798 5.43268 7.68842 5.60983C6.74361 5.84604 5.9169 6.31844 5.20829 6.90895C5.03113 7.0861 4.91303 7.32231 4.85398 7.55851L4.55873 8.85763H14.745L14.4202 7.49946Z"/>
</mask>
<path d="M17.1956 14.2108V15.5108H18.0462L18.3868 14.7313L17.1956 14.2108ZM19.2742 9.454L20.4654 9.97454L21.2739 8.12445L19.2551 8.15414L19.2742 9.454ZM0 9.73744L-0.0191156 8.43758L-2.02379 8.46706L-1.17894 10.2853L0 9.73744ZM2.07859 14.2108L0.899649 14.7586L1.24916 15.5108H2.07859V14.2108ZM4.34614 14.2108L5.63371 14.0314L5.47762 12.9108H4.34614V14.2108ZM5.85785 25.0641V26.3641H7.35146L7.14542 24.8847L5.85785 25.0641ZM3.59029 25.0641V23.7641H2.29029V25.0641H3.59029ZM3.59029 26.1772H2.29029V27.4772H3.59029V26.1772ZM15.6839 26.1772V27.4772H16.9839V26.1772H15.6839ZM15.6839 25.0641H16.9839V23.7641H15.6839V25.0641ZM13.4164 25.0641L12.1288 24.8847L11.9227 26.3641H13.4164V25.0641ZM14.9281 14.2108V12.9108H13.7966L13.6405 14.0314L14.9281 14.2108ZM14.4202 7.49946L15.6846 7.1971L15.6814 7.18416L14.4202 7.49946ZM14.0659 6.8499L14.9852 5.93066L14.9435 5.88896L14.8982 5.85121L14.0659 6.8499ZM11.5858 5.55078L11.9735 4.30996L11.8971 4.28607L11.8183 4.27175L11.5858 5.55078ZM7.68842 5.60983L8.00372 6.87102L8.01713 6.86766L8.03047 6.86402L7.68842 5.60983ZM5.20829 6.90895L4.37605 5.91026L4.33074 5.94801L4.28905 5.98971L5.20829 6.90895ZM4.85398 7.55851L3.5928 7.24321L3.58941 7.25677L3.58631 7.2704L4.85398 7.55851ZM4.55873 8.85763L3.29105 8.56952L2.93012 10.1576H4.55873V8.85763ZM14.745 8.85763V10.1576H16.3925L16.0094 8.55528L14.745 8.85763ZM18.3868 14.7313L20.4654 9.97454L18.083 8.93346L16.0044 13.6902L18.3868 14.7313ZM19.2551 8.15414L-0.0191156 8.43758L0.0191156 11.0373L19.2933 10.7539L19.2551 8.15414ZM-1.17894 10.2853L0.899649 14.7586L3.25753 13.6629L1.17894 9.18963L-1.17894 10.2853ZM2.07859 15.5108H4.34614V12.9108H2.07859V15.5108ZM3.05857 14.3901L4.57027 25.2434L7.14542 24.8847L5.63371 14.0314L3.05857 14.3901ZM5.85785 23.7641H3.59029V26.3641H5.85785V23.7641ZM2.29029 25.0641V26.1772H4.89029V25.0641H2.29029ZM3.59029 27.4772H15.6839V24.8772H3.59029V27.4772ZM16.9839 26.1772V25.0641H14.3839V26.1772H16.9839ZM15.6839 23.7641H13.4164V26.3641H15.6839V23.7641ZM14.7039 25.2434L16.2156 14.3901L13.6405 14.0314L12.1288 24.8847L14.7039 25.2434ZM14.9281 15.5108H17.1956V12.9108H14.9281V15.5108ZM9.6371 6.02407C11.6542 6.02407 13.2991 4.37912 13.2991 2.36203H10.6991C10.6991 2.94318 10.2182 3.42407 9.6371 3.42407V6.02407ZM13.2991 2.36203C13.2991 0.344945 11.6542 -1.3 9.6371 -1.3V1.3C10.2182 1.3 10.6991 1.78089 10.6991 2.36203H13.2991ZM9.6371 -1.3C7.62001 -1.3 5.97507 0.344945 5.97507 2.36203H8.57507C8.57507 1.78089 9.05595 1.3 9.6371 1.3V-1.3ZM5.97507 2.36203C5.97507 4.37912 7.62001 6.02407 9.6371 6.02407V3.42407C9.05595 3.42407 8.57507 2.94318 8.57507 2.36203H5.97507ZM15.6814 7.18416C15.5767 6.76541 15.3595 6.30505 14.9852 5.93066L13.1467 7.76914C13.1339 7.75635 13.1341 7.7526 13.1403 7.7643C13.1465 7.77593 13.1538 7.79377 13.159 7.81476L15.6814 7.18416ZM14.8982 5.85121C14.0317 5.12917 13.0437 4.64438 11.9735 4.30996L11.198 6.7916C12.0175 7.04769 12.6829 7.38961 13.2337 7.84859L14.8982 5.85121ZM11.8183 4.27175C11.1898 4.15748 10.4239 4.01458 9.6371 4.01458V6.61458C10.1494 6.61458 10.6826 6.70788 11.3532 6.82981L11.8183 4.27175ZM9.6371 4.01458C8.83287 4.01458 8.06201 4.16047 7.34637 4.35564L8.03047 6.86402C8.61396 6.70489 9.14221 6.61458 9.6371 6.61458V4.01458ZM7.37313 4.34865C6.20239 4.64133 5.20359 5.22064 4.37605 5.91026L6.04053 7.90764C6.6302 7.41624 7.28483 7.05074 8.00372 6.87102L7.37313 4.34865ZM4.28905 5.98971C3.91466 6.3641 3.69749 6.82446 3.5928 7.24321L6.11517 7.87381C6.12041 7.85283 6.1277 7.83499 6.1339 7.82335C6.14014 7.81166 6.14032 7.8154 6.12752 7.82819L4.28905 5.98971ZM3.58631 7.2704L3.29105 8.56952L5.8264 9.14574L6.12165 7.84662L3.58631 7.2704ZM4.55873 10.1576H14.745V7.55763H4.55873V10.1576ZM16.0094 8.55528L15.6846 7.19711L13.1559 7.80181L13.4806 9.15998L16.0094 8.55528Z" fill="white" mask="url(#path-1-inside-1_155_254)"/>
</svg>
