<svg width="24" height="24" viewBox="0 0 24 24" fill="none" xmlns="http://www.w3.org/2000/svg">
<path d="M16.5066 8.53092L16.5066 8.53089C16.7928 8.24483 16.7928 7.77907 16.5066 7.49302L16.5066 7.49299C16.3678 7.35413 16.1839 7.27803 15.9877 7.27803C15.7914 7.27803 15.6075 7.35419 15.4687 7.49298L15.4687 7.49303C15.3298 7.63184 15.2537 7.8157 15.2537 8.01195C15.2537 8.20837 15.3299 8.39214 15.4687 8.53087L15.4688 8.53095C15.6075 8.66982 15.7913 8.74599 15.9877 8.74605L16.5066 8.53092ZM16.5066 8.53092C16.3677 8.66985 16.1841 8.74604 15.9877 8.74605L16.5066 8.53092ZM1.3602 18.7563C1.07968 18.4759 1.07966 18.0209 1.36022 17.7405L4.6461 14.4546L4.6461 14.4546C4.92662 14.1741 5.3814 14.1741 5.66192 14.4546C5.94245 14.7351 5.94245 15.19 5.66192 15.4705L2.37592 18.7563L1.3602 18.7563ZM1.3602 18.7563C1.3602 18.7563 1.3602 18.7563 1.36019 18.7563L1.46622 18.6503L1.3602 18.7563ZM22.639 1.36076L22.6391 1.36082C22.8019 1.52374 22.8769 1.75515 22.8402 1.98296L22.8402 1.983C22.8285 2.05575 22.5675 3.64125 21.7429 5.80014L21.7429 5.80016C21.2588 7.06692 20.679 8.27096 20.0193 9.37921L20.0193 9.37922C19.2174 10.7261 18.2937 11.9342 17.2727 12.9726L16.446 17.2198L16.446 17.2199C16.4187 17.3598 16.3504 17.4886 16.2496 17.5896C16.2496 17.5897 16.2496 17.5897 16.2496 17.5897M22.639 1.36076L16.1434 17.4838L16.2496 17.5897M22.639 1.36076C22.476 1.19781 22.2445 1.12274 22.017 1.15944L22.0169 1.15946C21.9443 1.17123 20.3586 1.43206 18.1998 2.25688C16.933 2.74081 15.7289 3.3206 14.6208 3.9804C13.274 4.78221 12.0658 5.70583 11.0274 6.72682M22.639 1.36076L11.0274 6.72682M16.2496 17.5897L12.374 21.4777L16.2496 17.5897ZM11.0274 6.72682L6.78024 7.55367C6.78023 7.55367 6.78022 7.55367 6.78021 7.55367C6.64004 7.58093 6.51146 7.64944 6.41049 7.74987L6.41039 7.74998L2.52222 11.6257C2.52222 11.6257 2.52221 11.6257 2.5222 11.6257C2.29821 11.8489 2.24668 12.1921 2.3948 12.4713L2.39482 12.4713C2.52112 12.7091 2.76715 12.8527 3.02905 12.8527C3.07462 12.8527 3.12048 12.8484 3.16619 12.8396L3.16656 12.8395L7.25262 12.044C7.01649 12.5229 6.79355 13.0168 6.58423 13.5257L6.58419 13.5258C6.47411 13.7938 6.53571 14.1018 6.74059 14.3068L6.74064 14.3069L7.7089 15.2752L6.81687 16.1672C6.53635 16.4477 6.53634 16.9024 6.81687 17.1829C6.81687 17.1829 6.81687 17.1829 6.81687 17.1829L6.92293 17.0769M11.0274 6.72682L8.7247 16.291L8.61863 16.1849L7.7266 17.077C7.61563 17.1878 7.47025 17.2433 7.32484 17.2433C7.17928 17.2433 7.0339 17.1878 6.92293 17.0769M6.92293 17.0769C6.70099 16.855 6.70099 16.4952 6.92293 16.2733L7.81497 15.3812L6.92293 17.0769ZM14.4529 9.54673L14.4529 9.54674C14.8627 9.9565 15.4082 10.1824 15.9875 10.1825H15.9875C16.5669 10.1825 17.1127 9.95651 17.5225 9.54674L17.4164 9.44067L17.5225 9.54673C17.9322 9.13691 18.1582 8.59137 18.1582 8.01192C18.1581 7.43253 17.9322 6.88699 17.5225 6.47723C17.1127 6.0674 16.5671 5.84145 15.9877 5.84145C15.4083 5.84145 14.8627 6.0674 14.4529 6.47723C14.0432 6.88696 13.8172 7.43253 13.8172 8.01192C13.8172 8.5914 14.0432 9.13697 14.4529 9.54673ZM9.54511 18.3377C9.26466 18.0573 8.80982 18.0574 8.52939 18.3377L8.52938 18.3378L5.24341 21.6238C4.96287 21.9043 4.96288 22.3591 5.24339 22.6396C5.38366 22.7799 5.56773 22.8499 5.75131 22.8499C5.93491 22.8499 6.11897 22.7798 6.25921 22.6396L6.25923 22.6396L9.54512 19.3537C9.82563 19.0732 9.82564 18.6182 9.54511 18.3377ZM6.72295 13.5827C6.63583 13.7949 6.68458 14.0386 6.8467 14.2008L6.72295 13.5827ZM10.3666 15.9012L9.74053 15.275L11.2578 13.7579L11.2578 13.7579C11.5382 13.4774 11.5382 13.0226 11.2578 12.7421L11.2578 12.7421C10.9772 12.4616 10.5225 12.4616 10.242 12.7421L10.2419 12.7421L8.72474 14.2592L8.0987 13.6331C8.43228 12.867 8.79867 12.1396 9.19671 11.4526C9.21405 11.427 9.22896 11.4011 9.24207 11.3754C10.0245 10.039 10.9273 8.8569 11.9418 7.84237C14.148 5.63616 16.8246 4.32279 18.6853 3.60932L18.6853 3.60931C19.6818 3.22706 20.5559 2.97182 21.1888 2.81078C21.0278 3.44381 20.7725 4.31794 20.3903 5.31449L20.5303 5.3682L20.3903 5.3145C19.6768 7.17516 18.3634 9.85173 16.1572 12.0581C15.1428 13.0723 13.9609 13.975 12.6248 14.7574C12.5985 14.7708 12.5723 14.786 12.5467 14.8033C11.8599 15.2013 11.1325 15.5677 10.3666 15.9012ZM2.09486 21.9049C2.23508 22.0451 2.4191 22.1153 2.60278 22.1153C2.78632 22.1153 2.97047 22.0451 3.11068 21.9049L6.53558 18.48C6.8161 18.1995 6.8161 17.7447 6.5356 17.4642C6.25516 17.1836 5.80035 17.1836 5.51984 17.4642L2.09487 20.8892C1.81434 21.1697 1.81434 21.6244 2.09486 21.9049ZM5.20593 10.9788L7.26955 8.92193L9.45588 8.49628C8.99018 9.09555 8.55338 9.73271 8.14669 10.4063L5.20593 10.9788ZM15.5033 14.5439L15.0776 16.7302L13.0208 18.7938L13.5933 15.8531C14.267 15.4464 14.9041 15.0097 15.5033 14.5439Z" fill="white" stroke="white" stroke-width="0.3"/>
</svg>
