<svg width="24" height="24" viewBox="0 0 24 24" fill="none" xmlns="http://www.w3.org/2000/svg">
<mask id="path-1-outside-1_155_232" maskUnits="userSpaceOnUse" x="2" y="-0.5" width="20" height="25" fill="black">
<rect fill="white" x="2" y="-0.5" width="20" height="25"/>
<path fill-rule="evenodd" clip-rule="evenodd" d="M3 23.5V10C3 8.8955 3.8955 8 5 8V6C5 5.448 5.448 5 6 5H7V1C7 0.724 7.2235 0.5 7.5 0.5C7.7765 0.5 8 0.724 8 1V5H9C9.552 5 10 5.448 10 6V8C11.1045 8 12 8.8955 12 10V14H15.5V11H17.5V9.5H20.5V11H21V23.5H3ZM9 6.5C9 6.224 8.7765 6 8.5 6H6.5C6.2235 6 6 6.224 6 6.5V8H9V6.5ZM11 10C11 9.448 10.552 9 10 9H5C4.448 9 4 9.448 4 10V22.5H11V10ZM15.5 15H12V22.5H15.5V15ZM20 12H16.5V22.5H20V12ZM18 13.5H18.5C18.7765 13.5 19 13.7235 19 14V14.5C19 14.7765 18.7765 15 18.5 15H18C17.7235 15 17.5 14.7765 17.5 14.5V14C17.5 13.7235 17.7235 13.5 18 13.5ZM18 16.5H18.5C18.7765 16.5 19 16.7235 19 17V17.5C19 17.7765 18.7765 18 18.5 18H18C17.7235 18 17.5 17.7765 17.5 17.5V17C17.5 16.7235 17.7235 16.5 18 16.5ZM18 19.5H18.5C18.7765 19.5 19 19.7235 19 20V20.5C19 20.7765 18.7765 21 18.5 21H18C17.7235 21 17.5 20.7765 17.5 20.5V20C17.5 19.7235 17.7235 19.5 18 19.5ZM13.5 16.5H14C14.2765 16.5 14.5 16.7235 14.5 17V17.5C14.5 17.7765 14.2765 18 14 18H13.5C13.2235 18 13 17.7765 13 17.5V17C13 16.7235 13.2235 16.5 13.5 16.5ZM13.5 19.5H14C14.2765 19.5 14.5 19.7235 14.5 20V20.5C14.5 20.7765 14.2765 21 14 21H13.5C13.2235 21 13 20.7765 13 20.5V20C13 19.7235 13.2235 19.5 13.5 19.5ZM9 21H8.5C8.2235 21 8 20.7765 8 20.5V20C8 19.724 8.2235 19.5 8.5 19.5H9C9.2765 19.5 9.5 19.724 9.5 20V20.5C9.5 20.7765 9.2765 21 9 21ZM9 18H8.5C8.2235 18 8 17.7765 8 17.5V17C8 16.724 8.2235 16.5 8.5 16.5H9C9.2765 16.5 9.5 16.724 9.5 17V17.5C9.5 17.7765 9.2765 18 9 18ZM9 15H8.5C8.2235 15 8 14.7765 8 14.5V14C8 13.724 8.2235 13.5 8.5 13.5H9C9.2765 13.5 9.5 13.724 9.5 14V14.5C9.5 14.7765 9.2765 15 9 15ZM9 12H8.5C8.2235 12 8 11.7765 8 11.5V11C8 10.724 8.2235 10.5 8.5 10.5H9C9.2765 10.5 9.5 10.724 9.5 11V11.5C9.5 11.7765 9.2765 12 9 12ZM6.5 21H6C5.7235 21 5.5 20.7765 5.5 20.5V20C5.5 19.7235 5.7235 19.5 6 19.5H6.5C6.7765 19.5 7 19.7235 7 20V20.5C7 20.7765 6.7765 21 6.5 21ZM6.5 18H6C5.7235 18 5.5 17.7765 5.5 17.5V17C5.5 16.7235 5.7235 16.5 6 16.5H6.5C6.7765 16.5 7 16.7235 7 17V17.5C7 17.7765 6.7765 18 6.5 18ZM6.5 15H6C5.7235 15 5.5 14.7765 5.5 14.5V14C5.5 13.724 5.7235 13.5 6 13.5H6.5C6.7765 13.5 7 13.724 7 14V14.5C7 14.7765 6.7765 15 6.5 15ZM6.5 12H6C5.7235 12 5.5 11.7765 5.5 11.5V11C5.5 10.724 5.7235 10.5 6 10.5H6.5C6.7765 10.5 7 10.724 7 11V11.5C7 11.7765 6.7765 12 6.5 12Z"/>
</mask>
<path fill-rule="evenodd" clip-rule="evenodd" d="M3 23.5V10C3 8.8955 3.8955 8 5 8V6C5 5.448 5.448 5 6 5H7V1C7 0.724 7.2235 0.5 7.5 0.5C7.7765 0.5 8 0.724 8 1V5H9C9.552 5 10 5.448 10 6V8C11.1045 8 12 8.8955 12 10V14H15.5V11H17.5V9.5H20.5V11H21V23.5H3ZM9 6.5C9 6.224 8.7765 6 8.5 6H6.5C6.2235 6 6 6.224 6 6.5V8H9V6.5ZM11 10C11 9.448 10.552 9 10 9H5C4.448 9 4 9.448 4 10V22.5H11V10ZM15.5 15H12V22.5H15.5V15ZM20 12H16.5V22.5H20V12ZM18 13.5H18.5C18.7765 13.5 19 13.7235 19 14V14.5C19 14.7765 18.7765 15 18.5 15H18C17.7235 15 17.5 14.7765 17.5 14.5V14C17.5 13.7235 17.7235 13.5 18 13.5ZM18 16.5H18.5C18.7765 16.5 19 16.7235 19 17V17.5C19 17.7765 18.7765 18 18.5 18H18C17.7235 18 17.5 17.7765 17.5 17.5V17C17.5 16.7235 17.7235 16.5 18 16.5ZM18 19.5H18.5C18.7765 19.5 19 19.7235 19 20V20.5C19 20.7765 18.7765 21 18.5 21H18C17.7235 21 17.5 20.7765 17.5 20.5V20C17.5 19.7235 17.7235 19.5 18 19.5ZM13.5 16.5H14C14.2765 16.5 14.5 16.7235 14.5 17V17.5C14.5 17.7765 14.2765 18 14 18H13.5C13.2235 18 13 17.7765 13 17.5V17C13 16.7235 13.2235 16.5 13.5 16.5ZM13.5 19.5H14C14.2765 19.5 14.5 19.7235 14.5 20V20.5C14.5 20.7765 14.2765 21 14 21H13.5C13.2235 21 13 20.7765 13 20.5V20C13 19.7235 13.2235 19.5 13.5 19.5ZM9 21H8.5C8.2235 21 8 20.7765 8 20.5V20C8 19.724 8.2235 19.5 8.5 19.5H9C9.2765 19.5 9.5 19.724 9.5 20V20.5C9.5 20.7765 9.2765 21 9 21ZM9 18H8.5C8.2235 18 8 17.7765 8 17.5V17C8 16.724 8.2235 16.5 8.5 16.5H9C9.2765 16.5 9.5 16.724 9.5 17V17.5C9.5 17.7765 9.2765 18 9 18ZM9 15H8.5C8.2235 15 8 14.7765 8 14.5V14C8 13.724 8.2235 13.5 8.5 13.5H9C9.2765 13.5 9.5 13.724 9.5 14V14.5C9.5 14.7765 9.2765 15 9 15ZM9 12H8.5C8.2235 12 8 11.7765 8 11.5V11C8 10.724 8.2235 10.5 8.5 10.5H9C9.2765 10.5 9.5 10.724 9.5 11V11.5C9.5 11.7765 9.2765 12 9 12ZM6.5 21H6C5.7235 21 5.5 20.7765 5.5 20.5V20C5.5 19.7235 5.7235 19.5 6 19.5H6.5C6.7765 19.5 7 19.7235 7 20V20.5C7 20.7765 6.7765 21 6.5 21ZM6.5 18H6C5.7235 18 5.5 17.7765 5.5 17.5V17C5.5 16.7235 5.7235 16.5 6 16.5H6.5C6.7765 16.5 7 16.7235 7 17V17.5C7 17.7765 6.7765 18 6.5 18ZM6.5 15H6C5.7235 15 5.5 14.7765 5.5 14.5V14C5.5 13.724 5.7235 13.5 6 13.5H6.5C6.7765 13.5 7 13.724 7 14V14.5C7 14.7765 6.7765 15 6.5 15ZM6.5 12H6C5.7235 12 5.5 11.7765 5.5 11.5V11C5.5 10.724 5.7235 10.5 6 10.5H6.5C6.7765 10.5 7 10.724 7 11V11.5C7 11.7765 6.7765 12 6.5 12Z" fill="white"/>
<path fill-rule="evenodd" clip-rule="evenodd" d="M3 23.5V10C3 8.8955 3.8955 8 5 8V6C5 5.448 5.448 5 6 5H7V1C7 0.724 7.2235 0.5 7.5 0.5C7.7765 0.5 8 0.724 8 1V5H9C9.552 5 10 5.448 10 6V8C11.1045 8 12 8.8955 12 10V14H15.5V11H17.5V9.5H20.5V11H21V23.5H3ZM9 6.5C9 6.224 8.7765 6 8.5 6H6.5C6.2235 6 6 6.224 6 6.5V8H9V6.5ZM11 10C11 9.448 10.552 9 10 9H5C4.448 9 4 9.448 4 10V22.5H11V10ZM15.5 15H12V22.5H15.5V15ZM20 12H16.5V22.5H20V12ZM18 13.5H18.5C18.7765 13.5 19 13.7235 19 14V14.5C19 14.7765 18.7765 15 18.5 15H18C17.7235 15 17.5 14.7765 17.5 14.5V14C17.5 13.7235 17.7235 13.5 18 13.5ZM18 16.5H18.5C18.7765 16.5 19 16.7235 19 17V17.5C19 17.7765 18.7765 18 18.5 18H18C17.7235 18 17.5 17.7765 17.5 17.5V17C17.5 16.7235 17.7235 16.5 18 16.5ZM18 19.5H18.5C18.7765 19.5 19 19.7235 19 20V20.5C19 20.7765 18.7765 21 18.5 21H18C17.7235 21 17.5 20.7765 17.5 20.5V20C17.5 19.7235 17.7235 19.5 18 19.5ZM13.5 16.5H14C14.2765 16.5 14.5 16.7235 14.5 17V17.5C14.5 17.7765 14.2765 18 14 18H13.5C13.2235 18 13 17.7765 13 17.5V17C13 16.7235 13.2235 16.5 13.5 16.5ZM13.5 19.5H14C14.2765 19.5 14.5 19.7235 14.5 20V20.5C14.5 20.7765 14.2765 21 14 21H13.5C13.2235 21 13 20.7765 13 20.5V20C13 19.7235 13.2235 19.5 13.5 19.5ZM9 21H8.5C8.2235 21 8 20.7765 8 20.5V20C8 19.724 8.2235 19.5 8.5 19.5H9C9.2765 19.5 9.5 19.724 9.5 20V20.5C9.5 20.7765 9.2765 21 9 21ZM9 18H8.5C8.2235 18 8 17.7765 8 17.5V17C8 16.724 8.2235 16.5 8.5 16.5H9C9.2765 16.5 9.5 16.724 9.5 17V17.5C9.5 17.7765 9.2765 18 9 18ZM9 15H8.5C8.2235 15 8 14.7765 8 14.5V14C8 13.724 8.2235 13.5 8.5 13.5H9C9.2765 13.5 9.5 13.724 9.5 14V14.5C9.5 14.7765 9.2765 15 9 15ZM9 12H8.5C8.2235 12 8 11.7765 8 11.5V11C8 10.724 8.2235 10.5 8.5 10.5H9C9.2765 10.5 9.5 10.724 9.5 11V11.5C9.5 11.7765 9.2765 12 9 12ZM6.5 21H6C5.7235 21 5.5 20.7765 5.5 20.5V20C5.5 19.7235 5.7235 19.5 6 19.5H6.5C6.7765 19.5 7 19.7235 7 20V20.5C7 20.7765 6.7765 21 6.5 21ZM6.5 18H6C5.7235 18 5.5 17.7765 5.5 17.5V17C5.5 16.7235 5.7235 16.5 6 16.5H6.5C6.7765 16.5 7 16.7235 7 17V17.5C7 17.7765 6.7765 18 6.5 18ZM6.5 15H6C5.7235 15 5.5 14.7765 5.5 14.5V14C5.5 13.724 5.7235 13.5 6 13.5H6.5C6.7765 13.5 7 13.724 7 14V14.5C7 14.7765 6.7765 15 6.5 15ZM6.5 12H6C5.7235 12 5.5 11.7765 5.5 11.5V11C5.5 10.724 5.7235 10.5 6 10.5H6.5C6.7765 10.5 7 10.724 7 11V11.5C7 11.7765 6.7765 12 6.5 12Z" stroke="white" stroke-width="0.6" mask="url(#path-1-outside-1_155_232)"/>
</svg>
