<svg width="27" height="27" viewBox="0 0 27 27" fill="none" xmlns="http://www.w3.org/2000/svg">
<mask id="path-1-inside-1_124_1020" fill="white">
<path fill-rule="evenodd" clip-rule="evenodd" d="M13.5 27C20.9558 27 27 20.9558 27 13.5C27 6.04416 20.9558 0 13.5 0C6.04416 0 0 6.04416 0 13.5C0 20.9558 6.04416 27 13.5 27ZM8.09096 9.5246H5.29146C5.24519 9.52517 5.19972 9.53622 5.1587 9.55685C5.11768 9.57748 5.08226 9.60712 5.0553 9.64337C5.02834 9.67962 5.0106 9.72147 5.0035 9.76555C4.9964 9.80963 5.00014 9.8547 5.01442 9.89713C5.71323 11.9023 6.74084 13.7865 8.05815 15.4781C9.31574 17.0737 10.6317 18.5041 12.8552 18.6411C12.9245 18.6446 13.6863 18.6306 14.244 18.599C14.3962 18.5881 14.5379 18.5202 14.6387 18.4099C14.7396 18.2995 14.7916 18.1554 14.7835 18.0085C14.758 17.4392 14.809 16.5676 15.3412 16.4727C15.9828 16.3567 17.4044 17.8047 17.8929 18.3248C17.9467 18.3836 18.0129 18.4305 18.0871 18.4627C18.1613 18.4948 18.2417 18.5113 18.323 18.5111H21.4688C22.9269 18.5111 20.3752 15.7839 19.4421 14.8209C19.35 14.728 19.294 14.6075 19.2834 14.4794C19.2728 14.3514 19.3082 14.2238 19.3837 14.118C20.2722 12.8361 21.0419 11.4814 21.6838 10.0693C21.7025 10.0265 21.7099 9.97993 21.7053 9.93371C21.7007 9.88748 21.6844 9.84307 21.6577 9.80443C21.6309 9.76579 21.5947 9.73414 21.5522 9.71229C21.5097 9.69044 21.4623 9.67909 21.4141 9.67923H18.2975C18.2394 9.67887 18.1825 9.69546 18.1344 9.72682C18.0862 9.75818 18.0491 9.80285 18.0277 9.85496C17.6997 10.6668 16.2926 13.9739 15.1991 13.6506C14.572 13.4658 14.7739 12.1345 14.907 11.2572C14.9511 10.9666 14.9876 10.7259 14.984 10.593C14.9694 10.0588 14.8746 9.4297 14.3169 9.20478C13.2837 8.93174 12.1934 8.93174 11.1602 9.20478C11.1055 9.22587 10.2963 9.72492 10.5879 9.72492C11.6997 9.72492 12.0095 13.7314 11.1347 13.7314C9.95729 13.4854 8.67054 10.4735 8.3607 9.70383C8.33996 9.65107 8.30303 9.60565 8.25484 9.57363C8.20665 9.54161 8.14948 9.5245 8.09096 9.5246Z"/>
</mask>
<path fill-rule="evenodd" clip-rule="evenodd" d="M13.5 27C20.9558 27 27 20.9558 27 13.5C27 6.04416 20.9558 0 13.5 0C6.04416 0 0 6.04416 0 13.5C0 20.9558 6.04416 27 13.5 27ZM8.09096 9.5246H5.29146C5.24519 9.52517 5.19972 9.53622 5.1587 9.55685C5.11768 9.57748 5.08226 9.60712 5.0553 9.64337C5.02834 9.67962 5.0106 9.72147 5.0035 9.76555C4.9964 9.80963 5.00014 9.8547 5.01442 9.89713C5.71323 11.9023 6.74084 13.7865 8.05815 15.4781C9.31574 17.0737 10.6317 18.5041 12.8552 18.6411C12.9245 18.6446 13.6863 18.6306 14.244 18.599C14.3962 18.5881 14.5379 18.5202 14.6387 18.4099C14.7396 18.2995 14.7916 18.1554 14.7835 18.0085C14.758 17.4392 14.809 16.5676 15.3412 16.4727C15.9828 16.3567 17.4044 17.8047 17.8929 18.3248C17.9467 18.3836 18.0129 18.4305 18.0871 18.4627C18.1613 18.4948 18.2417 18.5113 18.323 18.5111H21.4688C22.9269 18.5111 20.3752 15.7839 19.4421 14.8209C19.35 14.728 19.294 14.6075 19.2834 14.4794C19.2728 14.3514 19.3082 14.2238 19.3837 14.118C20.2722 12.8361 21.0419 11.4814 21.6838 10.0693C21.7025 10.0265 21.7099 9.97993 21.7053 9.93371C21.7007 9.88748 21.6844 9.84307 21.6577 9.80443C21.6309 9.76579 21.5947 9.73414 21.5522 9.71229C21.5097 9.69044 21.4623 9.67909 21.4141 9.67923H18.2975C18.2394 9.67887 18.1825 9.69546 18.1344 9.72682C18.0862 9.75818 18.0491 9.80285 18.0277 9.85496C17.6997 10.6668 16.2926 13.9739 15.1991 13.6506C14.572 13.4658 14.7739 12.1345 14.907 11.2572C14.9511 10.9666 14.9876 10.7259 14.984 10.593C14.9694 10.0588 14.8746 9.4297 14.3169 9.20478C13.2837 8.93174 12.1934 8.93174 11.1602 9.20478C11.1055 9.22587 10.2963 9.72492 10.5879 9.72492C11.6997 9.72492 12.0095 13.7314 11.1347 13.7314C9.95729 13.4854 8.67054 10.4735 8.3607 9.70383C8.33996 9.65107 8.30303 9.60565 8.25484 9.57363C8.20665 9.54161 8.14948 9.5245 8.09096 9.5246Z" fill="#02283F"/>
<path d="M5.29146 9.5246V8.52452L5.27903 8.52467L5.29146 9.5246ZM8.09096 9.5246V10.5246L8.09252 10.5246L8.09096 9.5246ZM5.0553 9.64337L5.85774 10.2401L5.85775 10.2401L5.0553 9.64337ZM5.0035 9.76555L5.99077 9.9246L5.99077 9.92459L5.0035 9.76555ZM5.01442 9.89713L4.06663 10.2162L4.07012 10.2262L5.01442 9.89713ZM8.05815 15.4781L7.26915 16.0925L7.27277 16.0971L8.05815 15.4781ZM12.8552 18.6411L12.7937 19.6393L12.8046 19.6398L12.8552 18.6411ZM14.244 18.599L14.3007 19.5974L14.3078 19.5969L14.315 19.5964L14.244 18.599ZM14.6387 18.4099L13.9005 17.7353L13.9005 17.7353L14.6387 18.4099ZM14.7835 18.0085L13.7845 18.0533L13.785 18.0632L14.7835 18.0085ZM15.3412 16.4727L15.5168 17.4572L15.5191 17.4568L15.3412 16.4727ZM17.8929 18.3248L18.6299 17.6489L18.6218 17.6403L17.8929 18.3248ZM18.0871 18.4627L17.6897 19.3803L17.6897 19.3803L18.0871 18.4627ZM18.323 18.5111V17.5111L18.3206 17.5111L18.323 18.5111ZM19.4421 14.8209L20.1602 14.1249L20.1524 14.117L19.4421 14.8209ZM19.3837 14.118L20.1976 14.6992L20.2056 14.6877L19.3837 14.118ZM21.6838 10.0693L22.5942 10.4832L22.5974 10.4761L22.6005 10.469L21.6838 10.0693ZM21.7053 9.93371L20.7102 10.0321L20.7102 10.0321L21.7053 9.93371ZM21.6577 9.80443L22.4802 9.23572L22.4802 9.23568L21.6577 9.80443ZM21.4141 9.67923V10.6792L21.4171 10.6792L21.4141 9.67923ZM18.2975 9.67923L18.2912 10.6792H18.2975V9.67923ZM18.1344 9.72682L17.5886 8.88892L17.5885 8.88894L18.1344 9.72682ZM18.0277 9.85496L17.1022 9.47618L17.1006 9.48029L18.0277 9.85496ZM15.1991 13.6506L15.4826 12.6916L15.4818 12.6914L15.1991 13.6506ZM14.907 11.2572L15.8957 11.4072V11.4072L14.907 11.2572ZM14.984 10.593L15.9836 10.5657V10.5657L14.984 10.593ZM14.3169 9.20478L14.691 8.27736L14.6329 8.25396L14.5724 8.23797L14.3169 9.20478ZM11.1602 9.20478L10.9047 8.23797L10.8516 8.252L10.8004 8.27176L11.1602 9.20478ZM11.1347 13.7314L10.9302 14.7103L11.0313 14.7314H11.1347V13.7314ZM8.3607 9.70383L7.43001 10.0697L7.43305 10.0773L8.3607 9.70383ZM8.25484 9.57363L7.7014 10.4065L7.70142 10.4065L8.25484 9.57363ZM26 13.5C26 20.4036 20.4036 26 13.5 26V28C21.5081 28 28 21.5081 28 13.5H26ZM13.5 1C20.4036 1 26 6.59644 26 13.5H28C28 5.49187 21.5081 -1 13.5 -1V1ZM1 13.5C1 6.59644 6.59644 1 13.5 1V-1C5.49187 -1 -1 5.49187 -1 13.5H1ZM13.5 26C6.59644 26 1 20.4036 1 13.5H-1C-1 21.5081 5.49187 28 13.5 28V26ZM5.29146 10.5246H8.09096V8.5246H5.29146V10.5246ZM5.60801 10.4502C5.51232 10.4984 5.40825 10.5232 5.30389 10.5245L5.27903 8.52467C5.08214 8.52712 4.88712 8.57408 4.70939 8.66348L5.60801 10.4502ZM5.85775 10.2401C5.79015 10.331 5.70384 10.402 5.60801 10.4502L4.70939 8.66348C4.53151 8.75293 4.37437 8.88324 4.25286 9.04664L5.85775 10.2401ZM5.99077 9.92459C5.972 10.0411 5.92547 10.149 5.85774 10.2401L4.25287 9.04663C4.13121 9.21022 4.04919 9.40185 4.01623 9.60651L5.99077 9.92459ZM5.96216 9.57808C5.9995 9.68901 6.00955 9.80801 5.99077 9.9246L4.01623 9.6065C3.98324 9.81125 4.00077 10.0204 4.06669 10.2162L5.96216 9.57808ZM8.84713 14.8637C7.59614 13.2573 6.6213 11.4692 5.95872 9.56804L4.07012 10.2262C4.80516 12.3353 5.88554 14.3158 7.26917 16.0925L8.84713 14.8637ZM12.9167 17.643C11.1699 17.5353 10.0971 16.4496 8.84353 14.8591L7.27277 16.0971C8.53439 17.6978 10.0934 19.4728 12.7937 19.6392L12.9167 17.643ZM14.1874 17.6006C13.9229 17.6156 13.6043 17.6267 13.3403 17.6336C13.209 17.637 13.0938 17.6393 13.0083 17.6406C12.9013 17.6421 12.8821 17.6412 12.9059 17.6424L12.8046 19.6398C12.9338 19.6464 13.7447 19.6289 14.3007 19.5974L14.1874 17.6006ZM13.9005 17.7353C13.9763 17.6523 14.0754 17.6084 14.173 17.6015L14.315 19.5964C14.717 19.5678 15.0994 19.3882 15.377 19.0844L13.9005 17.7353ZM13.785 18.0632C13.7781 17.937 13.8235 17.8196 13.9005 17.7353L15.377 19.0844C15.6556 18.7794 15.805 18.3738 15.782 17.9539L13.785 18.0632ZM15.1657 15.4882C14.2834 15.6455 13.9818 16.4298 13.8837 16.8175C13.7715 17.2613 13.7704 17.7378 13.7845 18.0533L15.7825 17.9638C15.7772 17.8461 15.7763 17.7204 15.7834 17.5999C15.7905 17.4765 15.805 17.378 15.8227 17.3078C15.8423 17.2305 15.8536 17.2365 15.8213 17.2788C15.7747 17.34 15.6697 17.4299 15.5168 17.4572L15.1657 15.4882ZM18.6218 17.6403C18.3691 17.3711 17.8581 16.8434 17.3134 16.391C17.0435 16.1668 16.7353 15.9357 16.4251 15.7645C16.1675 15.6224 15.6894 15.3936 15.1633 15.4887L15.5191 17.4568C15.3138 17.4939 15.254 17.4026 15.4587 17.5155C15.6108 17.5995 15.8088 17.7412 16.0355 17.9295C16.4841 18.3021 16.9282 18.7584 17.1639 19.0094L18.6218 17.6403ZM18.4845 17.545C18.5373 17.5679 18.5873 17.6026 18.6298 17.6489L17.1559 19.0007C17.3061 19.1645 17.4885 19.2932 17.6897 19.3803L18.4845 17.545ZM18.3206 17.5111C18.376 17.511 18.4317 17.5222 18.4845 17.545L17.6897 19.3803C17.8908 19.4674 18.1074 19.5116 18.3254 19.5111L18.3206 17.5111ZM21.4688 17.5111H18.323V19.5111H21.4688V17.5111ZM18.7239 15.5168C19.1918 15.9996 20.0144 16.8738 20.5381 17.6079C20.6663 17.7876 20.765 17.9431 20.8329 18.0698C20.9068 18.2077 20.9168 18.2613 20.9143 18.2472C20.9132 18.241 20.8672 17.9797 21.0911 17.7277C21.3014 17.4912 21.533 17.5111 21.4688 17.5111V19.5111C21.7691 19.5111 22.2399 19.4458 22.5861 19.0563C22.9459 18.6514 22.9325 18.1696 22.8826 17.8927C22.7898 17.3775 22.4491 16.8429 22.1662 16.4463C21.5453 15.576 20.6255 14.6052 20.1602 14.125L18.7239 15.5168ZM18.2868 14.5621C18.3172 14.9289 18.4775 15.2682 18.7317 15.5248L20.1524 14.117C20.2226 14.1879 20.2708 14.286 20.28 14.3968L18.2868 14.5621ZM18.5699 13.5369C18.3586 13.8328 18.2564 14.1951 18.2868 14.5621L20.28 14.3968C20.2892 14.5077 20.2578 14.6147 20.1976 14.6991L18.5699 13.5369ZM20.7735 9.65545C20.1564 11.0127 19.4164 12.3154 18.5618 13.5484L20.2056 14.6877C21.128 13.3569 21.9273 11.95 22.5942 10.4832L20.7735 9.65545ZM20.7102 10.0321C20.6978 9.9074 20.718 9.78259 20.7672 9.66968L22.6005 10.469C22.6871 10.2705 22.7219 10.0525 22.7005 9.83528L20.7102 10.0321ZM20.8351 10.3731C20.7665 10.2738 20.7225 10.1567 20.7102 10.0321L22.7005 9.83532C22.679 9.61822 22.6023 9.41228 22.4802 9.23572L20.8351 10.3731ZM21.095 10.6017C20.9939 10.5497 20.9037 10.4723 20.8351 10.3732L22.4802 9.23568C22.3582 9.05933 22.1955 8.91861 22.0094 8.82292L21.095 10.6017ZM21.4171 10.6792C21.3065 10.6796 21.196 10.6536 21.095 10.6017L22.0094 8.82292C21.8234 8.72731 21.618 8.67861 21.4111 8.67924L21.4171 10.6792ZM18.2975 10.6792H21.4141V8.67923H18.2975V10.6792ZM18.6802 10.5647C18.5622 10.6416 18.4267 10.6801 18.2912 10.6792L18.3037 8.67925C18.052 8.67767 17.8028 8.74934 17.5886 8.88892L18.6802 10.5647ZM18.9532 10.2337C18.8959 10.3738 18.7986 10.4876 18.6802 10.5647L17.5885 8.88894C17.3739 9.02878 17.2022 9.23194 17.1022 9.47618L18.9532 10.2337ZM14.9155 14.6095C15.7397 14.8532 16.4052 14.357 16.7463 14.0319C17.135 13.6612 17.4786 13.1614 17.7593 12.6906C18.3295 11.7346 18.7863 10.6467 18.9549 10.2296L17.1006 9.48029C16.9411 9.87502 16.5304 10.8466 16.0416 11.6663C15.7929 12.0833 15.5591 12.4004 15.3662 12.5843C15.1256 12.8137 15.2052 12.6096 15.4826 12.6916L14.9155 14.6095ZM13.9183 11.1072C13.8551 11.524 13.7545 12.1677 13.7683 12.7378C13.7751 13.0206 13.8104 13.3719 13.9444 13.7001C14.0878 14.0513 14.3824 14.4524 14.9164 14.6098L15.4818 12.6914C15.7022 12.7563 15.7869 12.9218 15.796 12.944C15.7985 12.9502 15.7912 12.9338 15.7833 12.8849C15.7757 12.8374 15.7697 12.7728 15.7677 12.6894C15.7589 12.3283 15.8259 11.8677 15.8957 11.4072L13.9183 11.1072ZM13.9844 10.6203C13.9839 10.6046 13.985 10.6059 13.9828 10.6336C13.9808 10.6586 13.9772 10.6938 13.9712 10.7415C13.9589 10.8392 13.941 10.958 13.9183 11.1072L15.8957 11.4072C15.9315 11.1711 15.9904 10.8124 15.9836 10.5657L13.9844 10.6203ZM13.9429 10.1322C13.9352 10.1291 13.9182 10.1185 13.9054 10.1041C13.8962 10.0937 13.9043 10.0982 13.9186 10.1362C13.9335 10.1755 13.9496 10.2361 13.9621 10.3237C13.9745 10.4105 13.9813 10.509 13.9844 10.6203L15.9836 10.5657C15.9755 10.2689 15.9454 9.84202 15.7897 9.42961C15.6229 8.98797 15.2926 8.52 14.691 8.27736L13.9429 10.1322ZM11.4157 10.1716C12.2814 9.9428 13.1957 9.9428 14.0614 10.1716L14.5724 8.23797C13.3718 7.92068 12.1054 7.92068 10.9047 8.23797L11.4157 10.1716ZM10.5879 8.72492C10.6252 8.72492 10.7422 8.72678 10.887 8.77938C11.0434 8.83617 11.3116 8.98601 11.4503 9.32048C11.5805 9.63461 11.5093 9.90641 11.4667 10.0227C11.4224 10.1437 11.3647 10.2228 11.3436 10.2507C11.2808 10.3335 11.2432 10.3473 11.3379 10.2775C11.3983 10.2329 11.4737 10.1826 11.5396 10.1411C11.5718 10.1209 11.5972 10.1055 11.6127 10.0965C11.6209 10.0917 11.6225 10.0909 11.619 10.0928C11.6174 10.0936 11.6105 10.0974 11.6001 10.1026C11.5958 10.1047 11.564 10.1208 11.52 10.1378L10.8004 8.27176C10.7274 8.2999 10.6664 8.33418 10.6641 8.33542C10.6429 8.34696 10.6218 8.35903 10.6032 8.36991C10.5651 8.39219 10.5206 8.41929 10.4738 8.44877C10.3817 8.50678 10.2627 8.58526 10.1505 8.66804C10.0725 8.72561 9.88386 8.86551 9.74967 9.04257C9.71069 9.09399 9.64009 9.19465 9.58877 9.33475C9.53917 9.47014 9.46686 9.75858 9.60277 10.0864C9.7471 10.4345 10.0278 10.5951 10.2043 10.6592C10.3693 10.7192 10.5142 10.7249 10.5879 10.7249V8.72492ZM11.1347 14.7314C11.6919 14.7314 12.0547 14.3918 12.2399 14.1142C12.4153 13.8512 12.5042 13.5517 12.5545 13.3052C12.6581 12.7975 12.661 12.1871 12.6006 11.6219C12.5402 11.0567 12.4063 10.4413 12.1749 9.93514C12.0597 9.68334 11.8968 9.40591 11.662 9.17859C11.4178 8.94217 11.0546 8.72492 10.5879 8.72492V10.7249C10.3992 10.7249 10.2888 10.6329 10.2709 10.6156C10.2625 10.6073 10.2993 10.6429 10.3559 10.7667C10.468 11.0118 10.5653 11.398 10.6119 11.8345C10.6586 12.2708 10.6445 12.6621 10.5948 12.9056C10.5685 13.0347 10.5468 13.0482 10.5761 13.0043C10.6151 12.9459 10.7962 12.7314 11.1347 12.7314V14.7314ZM7.43305 10.0773C7.59444 10.4782 8.01397 11.4738 8.55615 12.4137C8.82603 12.8815 9.14532 13.3692 9.49913 13.7691C9.82591 14.1385 10.3084 14.5804 10.9302 14.7103L11.3392 12.7526C11.3722 12.7595 11.2524 12.7326 10.9971 12.444C10.7688 12.1859 10.5263 11.8264 10.2886 11.4143C9.81557 10.5943 9.4368 9.69915 9.28836 9.33039L7.43305 10.0773ZM7.70142 10.4065C7.58273 10.3277 7.48586 10.2117 7.43004 10.0697L9.29137 9.33796C9.19406 9.09043 9.02334 8.88363 8.80826 8.74073L7.70142 10.4065ZM8.09252 10.5246C7.95604 10.5248 7.81967 10.4851 7.7014 10.4065L8.80828 8.74074C8.59363 8.59811 8.34293 8.5242 8.08939 8.5246L8.09252 10.5246Z" fill="#02283F" mask="url(#path-1-inside-1_124_1020)"/>
</svg>
